/* XPM */
static char *abd7d045b5bb4b81f07830b34e06f36fUQ9u827fDpKXdO8f[] = {
/* columns rows colors chars-per-pixel */
"64 64 68 1 ",
"  c None",
". c black",
"X c #070707",
"o c #0B0B0B",
"O c #0C0C0C",
"+ c gray6",
"@ c #101010",
"# c gray7",
"$ c #131313",
"% c gray8",
"& c gray9",
"* c #191919",
"= c gray10",
"- c #1B1B1B",
"; c gray11",
": c #1D1D1D",
"> c #1E1E1E",
", c #202020",
"< c gray13",
"1 c #222222",
"2 c #232323",
"3 c gray14",
"4 c #252525",
"5 c gray15",
"6 c #272727",
"7 c #282828",
"8 c gray16",
"9 c #2A2A2A",
"0 c gray17",
"q c #2C2C2C",
"w c #2D2D2D",
"e c #2F2F2F",
"r c gray19",
"t c #313131",
"y c #323232",
"u c gray20",
"i c #343434",
"p c gray21",
"a c #373737",
"s c gray22",
"d c #393939",
"f c #3A3A3A",
"g c gray23",
"h c #3C3C3C",
"j c gray24",
"k c #3E3E3E",
"l c #414141",
"z c gray26",
"x c #434343",
"c c #464646",
"v c #484848",
"b c #494949",
"n c gray29",
"m c #4C4C4C",
"M c gray30",
"N c gray31",
"B c #505050",
"V c gray32",
"C c #555555",
"Z c #565656",
"A c gray34",
"S c #585858",
"D c #5A5A5A",
"F c gray36",
"G c #5F5F5F",
"H c gray38",
"J c #646464",
"K c #656565",
/* pixels */
"                                                                ",
"                                                                ",
"                                                                ",
"                                                                ",
"                                                                ",
"                                                                ",
"                                                                ",
"                                                                ",
"                                                                ",
"                                                                ",
"                                                                ",
"                                    hmmca>                      ",
"                                  7VKFSCVl1                     ",
"                                  VKSSVmclg=                    ",
"                                 hHSClqthgg6                    ",
"                                 nFCh   6aq7                    ",
"                                 nCmq    q76@                   ",
"                                 lVnt   >77>                    ",
"                                 tnlg1 =661=                    ",
"                                 >hhat77611O                    ",
"                                  1ttq71>>@                     ",
"                                   =6761>O                      ",
"                                    %11=O                       ",
"                                     @X..                       ",
"                                     ....                       ",
"                                     ....                       ",
"                                     ....                       ",
"                                     ....                       ",
"                                     ....                       ",
"                                     ....                       ",
"                    O                ....                       ",
"                    6                ....                       ",
"                    t1               ....                       ",
"                    q7              .....                       ",
"                    7=.             .....                       ",
"                    @..             .....                       ",
"                    ....            .....                       ",
"                    .....           .....                       ",
"                    .....           .....                       ",
"                    ......          .....                       ",
"                    ....            .....                       ",
"                    ....            .....                       ",
"                    ....            .....                       ",
"                    ....            .....                       ",
"                    ....            .....                       ",
"                    .....           ....                        ",
"                     .....         .....                        ",
"                     ......       .....                         ",
"                      .......   .......                         ",
"                       ...............                          ",
"                        .............                           ",
"                         ...........                            ",
"                           ......                               ",
"                                                                ",
"                                                                ",
"                                                                ",
"                                                                ",
"                                                                ",
"                                                                ",
"                                                                ",
"                                                                ",
"                                                                ",
"                                                                ",
"                                                                "
};
