/* XPM */
static char *cad5736eea8549618580245b3e270c279x4zpgsRr8KyOynt[] = {
/* columns rows colors chars-per-pixel */
"64 64 205 2 ",
"   c None",
".  c #13100C",
"X  c #10142A",
"o  c #752E3B",
"O  c #242A46",
"+  c #36405F",
"@  c #822927",
"#  c #CC3729",
"$  c #953B4F",
"%  c #B84A67",
"&  c #B14D72",
"*  c #BE5177",
"=  c #AF4868",
"-  c #E96C5E",
";  c #E37C58",
":  c #E27458",
">  c #C4537C",
",  c #D7547D",
"<  c #DE5878",
"1  c #EA4C7C",
"2  c #E9487C",
"3  c #E55576",
"4  c #E35B72",
"5  c #E4527A",
"6  c #EA537D",
"7  c #E65C78",
"8  c #E85D6E",
"9  c #DE7579",
"0  c #D8636E",
"q  c #E36B63",
"w  c #E4626C",
"e  c #E66569",
"r  c #E3746D",
"t  c #E37A6E",
"y  c #E46374",
"u  c #E26B79",
"i  c #E27277",
"p  c #E3737C",
"a  c #E97A79",
"s  c #E7993D",
"d  c #F19739",
"f  c #EBAB28",
"g  c #ECB823",
"h  c #E9B02D",
"j  c #E9A934",
"k  c #E8A238",
"l  c #F3AE30",
"z  c #EDBA38",
"x  c #F3BD30",
"c  c #F7CC09",
"v  c #F5D308",
"b  c #FBD503",
"n  c #F4CB11",
"m  c #F5C91A",
"M  c #F9D312",
"N  c #FBD51A",
"B  c #ECC01A",
"V  c #F5CC27",
"C  c #FBD724",
"Z  c #F3D320",
"A  c #FBCD37",
"S  c #DD9045",
"D  c #E7814C",
"F  c #E38E4D",
"G  c #E39848",
"H  c #E1845A",
"J  c #E48754",
"K  c #E69C52",
"L  c #E7965B",
"P  c #E9A649",
"I  c #ECB24B",
"U  c #EDA655",
"Y  c #F5B351",
"T  c #E58969",
"R  c #E7936D",
"E  c #EF8476",
"W  c #F48A7B",
"Q  c #F28F72",
"!  c #EAB06F",
"~  c #F6BC68",
"^  c #FBBF74",
"/  c #F0A670",
"(  c #F8C24D",
")  c #FBC862",
"_  c #515A80",
"`  c #697191",
"'  c #EB3E85",
"]  c #EC3E8C",
"[  c #BF7090",
"{  c #B16484",
"}  c #DB4B8B",
"|  c #DF4C86",
" . c #C75B84",
".. c #D65D8B",
"X. c #DB5E8D",
"o. c #D75888",
"O. c #DC5D93",
"+. c #ED4483",
"@. c #E44C83",
"#. c #ED4B84",
"$. c #ED448C",
"%. c #EF4B8A",
"&. c #E7458A",
"*. c #F14584",
"=. c #F04C85",
"-. c #F14289",
";. c #F14E8B",
":. c #E35286",
">. c #EF5386",
",. c #E2568A",
"<. c #ED548B",
"1. c #E55B8C",
"2. c #EC5A8E",
"3. c #E55D86",
"4. c #F0538B",
"5. c #F1588E",
"6. c #EE4593",
"7. c #EE4B93",
"8. c #F04A94",
"9. c #F14F9C",
"0. c #ED5394",
"q. c #E55D91",
"w. c #ED5D92",
"e. c #EA5D9D",
"r. c #E7579A",
"t. c #F15493",
"y. c #F15C93",
"u. c #F25A9C",
"i. c #C26287",
"p. c #DB618E",
"a. c #DC688E",
"s. c #DE6291",
"d. c #D96D97",
"f. c #C37393",
"g. c #E36B86",
"h. c #E5668D",
"j. c #E36A8A",
"k. c #E97686",
"l. c #E46293",
"z. c #ED6496",
"x. c #EF6598",
"c. c #EF6A9B",
"v. c #E76799",
"b. c #F16496",
"n. c #F16599",
"m. c #F3689B",
"M. c #F46697",
"N. c #EC709E",
"B. c #F47492",
"V. c #EC5BA2",
"C. c #DC78A0",
"Z. c #EF61A0",
"A. c #FB6AA2",
"S. c #F262A5",
"D. c #F173A2",
"F. c #F27BA7",
"G. c #F46DBC",
"H. c #F27CC2",
"J. c #7B8CB0",
"K. c #A78396",
"L. c #AE8C9F",
"P. c #818EAD",
"I. c #8592B4",
"U. c #AF90A0",
"Y. c #B19CAB",
"T. c #EC9083",
"R. c #F69C8B",
"E. c #EE8E90",
"W. c #F58C90",
"Q. c #F7AC8B",
"!. c #F5AB9D",
"~. c #C18BA5",
"^. c #D68BAC",
"/. c #CA98B3",
"(. c #F283AD",
"). c #F698A4",
"_. c #F28BB5",
"`. c #F49CBF",
"'. c #FBC293",
"]. c #909CC1",
"[. c #AEB3CB",
"{. c #C3B9C5",
"}. c #F5ADCA",
"|. c #F5A3C4",
" X c #F7BBD5",
".X c #F6B3CF",
"XX c #AFC2C9",
"oX c #B5C4CE",
"OX c #ACCAE2",
"+X c #CAC1D0",
"@X c #D5CBD9",
"#X c #D2D0DF",
"$X c #F8C3DA",
"%X c #C0CEE7",
"&X c #C6DDE3",
"*X c #D3DFEE",
"=X c #CFE3EC",
"-X c #CFE9F6",
";X c #D8E8F6",
":X c #CEF1F4",
">X c #DCFCFF",
",X c #D6F4FE",
"<X c #E2FFFF",
"1X c #E4FFFF",
"2X c #EBFFFF",
/* pixels */
"                                                                                                                                ",
"                                                                                                                                ",
"                                                                                                                                ",
"                                                                  s.l.l.l.l.l.l.l.                                              ",
"                                                          X.1.w.z.z.n.n.n.n.n.z.x.x.v.p.                                        ",
"                                                        q.z.F.|.D.z.z.z.b.z.z.x.z.y.4.y.l.                                      ",
"                                                    s.w.D.}.$X|.x.x.z.n.n.z.x.b.b.2.+.w.n.z.                                    ",
"                                                  s.z.F. X X(.z.z.x.z.b.z.n.<.#.2.m.z.x.z.x.l.                                  ",
"                                                  z.F. X}.D.w.z.x.z.x.z.n.z.#.*.>.x.z.x.z.z.x.X.                                ",
"                                                l.n.}.`.z.z.n.x.z.n.x.n.z.n.y.#.w.b.n.w.=.#.b.l.                                ",
"                                              ..w.n.F.z.z.z.z.n.x.x.x.z.x.z.x.n.x.b.z.;.*.#.#.z.                                ",
"                                              l.F.c.w.x.n.z.x.z.x.x.x.n.x.n.z.z.x.z.b.#.*.=.2 y.l.                              ",
"                                              N.$X.Xc.z.x.n.z.n.x.z.z.n.x.x.b.x.z.n.c.<.*.#.+.5.l.                              ",
"                                            X.x._.(.z.x.x.x.x.x.x.n.x.x.x.x.z.x.n.z.b.z.<.*.<.b.v.                              ",
"                                            l.z.w.z.z.n.z.x.x.x.x.z.x.x.z.x.x.x.z.n.z.n.x.b.z.c.z.                              ",
"                                            l.n.x.x.x.z.z.n.z.x.x.n.x.n.n.x.z.n.x.z.n.z.b.z.z.x.z.                              ",
"                                            v.n.z.n.z.m.m.n.x.x.x.x.x.x.n.z.b.z.x.z.x.z.n.z.z.x.z.O.                            ",
"                                            z.n.z.x.m.X.o.n.x.z.n.z.n.x.x.x.z.b.m.m.z.n.z.x.x.x.x.s.                            ",
"                                            l.n.z.n...& O.m.x.z.z.x.x.x.x.z.n.l.> o.M.x.x.x.z.n.b.                              ",
"                                            l.n.z.x.X.M.y.5.b.x.z.x.x.x.z.x.m.M.O.* X.n.z.n.z.z.z.                              ",
"                                            l.b.x.x.n...~./.d.w.x.z.n.z.x.y.1.2.M.M.z.n.z.x.z.n.z.                              ",
"                                            ..z.x.M. .oX<X1X=XC.b.z.x.x.q.^.+X[.f.w.x.x.x.n.x.x.s.                              ",
"                                              l.m.2.L.<X%X].,X@Xw.x.x.y.^.,X>X2X&Xi.n.n.x.z.b.v.                                ",
"                                                c.,.Y.2X+ . [.*Xv.z.x.z.@X-X` P.<XL.2.x.z.b.z.                                  ",
"                                                s.w.K.<X` X J.;Xl.c.z.l.*XI.. O >XL.<.n.n.z.X.                                  ",
"                                                  z. .XX1X-X>X/.w.x.x.2.@XOX_ [.:X{ n.n.v.X.                                    ",
"                                                    b. .Y.{.~.q.x.b.z.b.d.&X>X-XK.1.m.z.X.                                      ",
"                                                    l.M.2.,.y.M.v.z.z.z.M...f.i.q.n.x.X.                                        ",
"                      X.<.r.l.                      X.z.n.l.* h.A.m.m.m.1.z.b.n.n.x.l.                                          ",
"                      #.*.8 7 e.l.a.                z.n.z.m.o.o & 3., $ = z.z.b.b.v.                                            ",
"                      @.+.L ! e 7.e.z.l.s.X.s.l.l.z.x.z.n.z.A.> @ # # % n.n.z.z.x.z.                                            ",
"                        :.}   E l q ,.l.z.z.z.z.n.x.z.n.z.n.z.m.M.3.z.A.x.z.n.z.x.z.            l.v.l.z.q.@.                    ",
"        s.s.                    P p w.2.,.<.<.z.z.m.z.l.v.z.z.z.n.n.n.z.z.x.z.n.z.n.z.          s.l.z.m.5.+.                    ",
"      1.w.w.z.l.              l.r.0.,.3.z.z.z.b.z.w.l.2.5.z.x.x.z.b.z.z.b.x.z.x.x.z.z.z.l.l.l.l.l.c.z.<.*.y                     ",
"        , 1 *.;.z.v.l.l.l.v.z.<.@.:.;.5.w.4.*.-.*.@.2.+.#.z.x.z.z.n.e.>.x.x.z.z.z.n.z.b.n.l.w.y.t.7.$.+.u                       ",
"          R i 5 ] ;.t.y.t.7.#., v.5.;.=.' 2 3 8 w p.y.#.5.z.z.x.n.j.< ;.x.b.z.n.z.n.z.z.x.z.,.5 e - ; g.                        ",
"            m.I s - w w q ; S l.y.=.] 5 t k.k.) g l.x.z.x.x.z.x.V.F q 8.c.z.x.z.z.x.z.v.x.x.x.h.t L T s.o.                      ",
"                  ~ E E ( v p y.+.3 s V !.t.    9 %.w.x.z.n.x.n.j.B 8 t.z.z.x.z.<.b.x.x.w.w.x.m.u.V.e.<.#.w.v.p.                ",
"            p.O.          9 7.+.u R )           e.w.z.z.z.z.z.V.s v 3 t.c.z.x.v.&.=.<.b.x.q.:.<.w.b.x.z.w.n.n.b.l.s.a.q.}       ",
"        l.z.n.z.        X.<.] u k.u.          X.v.m.x.z.z.x.V.H b M 4 <.x.z.b.z.0 +.=.#.<.z.z.<.:.>.<.<.<.#.:.;.4.t.7.6 H       ",
"        z.n.n.l...  l.2.4.] ; ~ G.            z.n.z.z.z.n.V.J M N b q 7.z.b.n.z.z T @.] *.*.>.2.q.2.3.2.1.1.1.,.@.4 d B         ",
"        :.w.x.x.z.w.<.*.2 F M               z.M.z.z.x.n.e.F Y ).  A ; $.z.z.z.l.  B.k.r 7 &.+.2 2 +.$.$.7.7.y.b.x.j.P           ",
"          @.;.>.%.$.' 7 a R.              l.z.z.z.n.V.g.h U 9.    W.k +.b.z.b.v.    u.Q.m g U T R P f j G F 4 $.z.y.r.          ",
"            5 #.6 e K E.0.              l.x.n.x.V.u s n N ).      4.I 1 4.c.z.z.            ).y.m.Q.    W E U i +.#.<.          ",
"                                    l.z.M.x.V.r j A A N m         H.( : 6.b.z.n.l.                          R.U +.y.z.          ",
"                                  l.z.n.V.i h V Q y.F.              N f ] >.x.b.z.s.                        r 3 <.x.X.          ",
"                              p.z.b.e.i j c b )                       C : ] 2.m.x.z.X.                      &.q.l.s.            ",
"                            l.z.n.e.T Q /                             F.U w ] >.z.x.x.s.                                        ",
"                          z.z.n.r.P R.9.                                b.I < ] ;.2.b.b.l.                                      ",
"                        l.n.z.e.j N                                       ^ n q ' *.<.z.n.v...                                  ",
"                      s.b.b.e.T ~                                             N K 4 +.$.2.b.x.X.                                ",
"                      l.n.n.h.T u.                                              W.E T w ] 4.b.z.s.                              ",
"                      l.z.m.g.T.S.                                                8.).Z k 4 ;.b.c.                              ",
"                      l.x.n.l.I                                                         Q.I q 0.4.3.                            ",
"                      s.n.z.x.r 9                                                         B.z 5 *.<.                            ",
"                        l.x.z.e.O.                                                          / 3 4.y.s.                          ",
"                                                                                            7 0.m.x.                            ",
"                                                                                            :.x.l...                            ",
"                                                                                                                                ",
"                                                                                                                                ",
"                                                                                                                                ",
"                                                                                                                                ",
"                                                                                                                                ",
"                                                                                                                                "
};
