/* XPM */
static char *fed629bf3d6747bff75357f0c1be7dc68T5ZI48bgThYA4HI[] = {
/* columns rows colors chars-per-pixel */
"64 64 196 2 ",
"   c None",
".  c #752E3B",
"X  c #822927",
"o  c #CC3729",
"O  c #953B4F",
"+  c #AF4868",
"@  c #B84A67",
"#  c #B94E73",
"$  c #BE547B",
"%  c #E96C5E",
"&  c #E37555",
"*  c #E37C58",
"=  c #E2745E",
"-  c #C4537C",
";  c #DE5C75",
":  c #D7547D",
">  c #DF517E",
",  c #E85D6E",
"<  c #EA467F",
"1  c #EA4C7C",
"2  c #E74E76",
"3  c #E55576",
"4  c #E35B72",
"5  c #E4527A",
"6  c #EA537D",
"7  c #E65C78",
"8  c #D8636E",
"9  c #DE7579",
"0  c #E56466",
"q  c #E36B63",
"w  c #E4626C",
"e  c #E8656C",
"r  c #E3746D",
"t  c #E37A6E",
"y  c #E46374",
"u  c #E26B7C",
"i  c #E36B75",
"p  c #E27277",
"a  c #E3737C",
"s  c #E97A79",
"d  c #E69C3E",
"f  c #E8963C",
"g  c #F19739",
"h  c #EBAC2B",
"j  c #EBAB21",
"k  c #ECB823",
"l  c #E9B02D",
"z  c #E9A934",
"x  c #E8A238",
"c  c #F3AE30",
"v  c #EDBA38",
"b  c #F3BD30",
"n  c #F7CC09",
"m  c #FAD405",
"M  c #FED800",
"N  c #F5D308",
"B  c #ECC01A",
"V  c #F4CB11",
"C  c #F5C91A",
"Z  c #F9D312",
"A  c #FDD41C",
"S  c #FAD719",
"D  c #F5CC27",
"F  c #FBD724",
"G  c #F3D320",
"H  c #FBC63C",
"J  c #FAD332",
"K  c #DD9045",
"L  c #E7814C",
"P  c #E38E4D",
"I  c #E1954C",
"U  c #E89E41",
"Y  c #E1845A",
"T  c #E48754",
"R  c #E69C52",
"E  c #E7965B",
"W  c #E9A649",
"Q  c #F5AC4D",
"!  c #ECB24B",
"~  c #F0B844",
"^  c #EDA655",
"/  c #F7A858",
"(  c #F6BF5B",
")  c #E3826A",
"_  c #E58E6A",
"`  c #E68A69",
"'  c #F3846B",
"]  c #E7936D",
"[  c #EF8476",
"{  c #F48A7B",
"}  c #EC9872",
"|  c #F69278",
" . c #EAA263",
".. c #EAB06F",
"X. c #F6BC68",
"o. c #EEAA73",
"O. c #F9A77B",
"+. c #FBBF74",
"@. c #F8C445",
"#. c #F7C054",
"$. c #FBC862",
"%. c #EB3E85",
"&. c #EC3E8C",
"*. c #DB4B8B",
"=. c #DF4C86",
"-. c #D35985",
";. c #DC568A",
":. c #D65D8B",
">. c #DB5E8D",
",. c #DC5D93",
"<. c #ED4483",
"1. c #E44C83",
"2. c #EE4B85",
"3. c #ED448C",
"4. c #EF4D8A",
"5. c #E7458A",
"6. c #F14584",
"7. c #F04C85",
"8. c #F14289",
"9. c #F14E8B",
"0. c #E45285",
"q. c #EF5386",
"w. c #E1568B",
"e. c #ED538B",
"r. c #E45B8C",
"t. c #EC5A8E",
"y. c #E55D86",
"u. c #F1538C",
"i. c #F1588E",
"p. c #EE4593",
"a. c #EE4B93",
"s. c #F04A94",
"d. c #F14F9C",
"f. c #ED5394",
"g. c #E55D91",
"h. c #ED5D92",
"j. c #E65B9A",
"k. c #EA5D9D",
"l. c #E9539A",
"z. c #F15493",
"x. c #F15B93",
"c. c #F25A9C",
"v. c #DC618E",
"b. c #DC688E",
"n. c #DE6291",
"m. c #E36B86",
"M. c #E5668D",
"N. c #E36A8A",
"B. c #F46B8F",
"V. c #EC7984",
"C. c #E5728A",
"Z. c #E56293",
"A. c #EE6496",
"S. c #E76098",
"D. c #EF6598",
"F. c #EF6A9B",
"G. c #F16696",
"H. c #F06599",
"J. c #F4679B",
"K. c #F1659A",
"L. c #F5689D",
"P. c #F16899",
"I. c #F06895",
"U. c #EC709E",
"Y. c #F37C94",
"T. c #EC5BA2",
"R. c #EF61A0",
"E. c #F060A0",
"W. c #FA6AA1",
"Q. c #FE6BA3",
"!. c #F364AA",
"~. c #F172A1",
"^. c #F176A4",
"/. c #F37AA6",
"(. c #F17DA9",
"). c #F46DBC",
"_. c #F27CC2",
"`. c #F58C88",
"'. c #EC9083",
"]. c #F59C89",
"[. c #F89D8E",
"{. c #EE8E90",
"}. c #F58293",
"|. c #F69695",
" X c #F7AC8B",
".X c #F5AB9D",
"XX c #F283AD",
"oX c #F698A4",
"OX c #F28BB5",
"+X c #F49CBF",
"@X c #FBC293",
"#X c #F5A3C4",
"$X c #F5ADCA",
"%X c #F6B3CF",
"&X c #F7BBD5",
"*X c #F8C3DA",
/* pixels */
"                                                                                                                                ",
"                                                                                                                                ",
"                                                                                                                                ",
"                                                                  n.Z.Z.Z.Z.Z.Z.Z.                                              ",
"                                                          >.r.h.A.H.H.H.H.H.H.H.H.D.A.n.                                        ",
"                                                        Z.A.(.#X~.A.A.A.H.A.A.A.A.h.e.h.Z.                                      ",
"                                                    n.h.~.$X*X#XD.A.A.H.H.A.H.A.I.t.2.h.P.S.                                    ",
"                                                  n.A.^.&X&XXXA.D.D.A.H.A.H.e.6.i.A.H.H.A.H.Z.                                  ",
"                                                  S.^.&X$X~.h.D.D.A.D.D.D.H.2.< 7.H.A.D.A.A.D.v.                                ",
"                                                Z.L.$X+Xh.A.H.D.A.D.H.A.A.P.i.e.x.H.A.x.7.6.x.Z.                                ",
"                                              v.G.H.(.A.D.D.A.D.D.H.D.H.H.A.D.H.D.D.D.q.< 7.7.A.                                ",
"                                              Z.~.F.h.D.D.A.H.D.D.A.D.D.D.H.A.A.H.D.D.7.7.7.< t.Z.                              ",
"                                              U.*X%XP.A.D.D.D.H.H.D.D.H.A.P.A.H.A.G.D.e.6.2.<.x.Z.                              ",
"                                            >.D.OXXXD.D.D.D.D.A.A.D.D.D.D.D.D.H.D.A.H.A.e.7.4.H.A.                              ",
"                                            Z.A.h.A.A.D.D.D.D.D.H.D.H.D.A.D.D.A.H.H.A.H.H.G.D.D.A.                              ",
"                                            Z.H.A.P.D.A.A.D.A.D.D.D.A.H.H.D.H.D.D.A.H.A.G.A.A.D.A.                              ",
"                                            S.H.D.D.A.J.J.D.D.D.D.H.D.D.H.A.H.A.D.D.D.D.H.A.A.D.D.n.                            ",
"                                            A.H.A.D.H.>.-.D.A.D.A.A.H.H.A.A.A.A.J.L.h.D.D.D.D.D.A.n.                            ",
"                                            Z.H.D.H.-.# g.D.D.D.H.A.H.A.H.A.H.Z.- -.H.D.D.D.A.H.A.                              ",
"                                            Z.H.D.D.>.H.L.A.A.A.D.H.A.D.D.D.H.A.,.$ M.H.A.D.A.D.A.                              ",
"                                            Z.H.A.D.H.t.q.4.2.2.e.h.D.A.t.7.e.q.u.i.h.H.A.D.A.H.Z.                              ",
"                                            v.A.A.D.A.e.2.<.2.q.e.G.D.H.t.4.<.<.6.< u.H.A.D.A.H.n.                              ",
"                                              Z.D.A.A.D.A.h.A.D.D.D.A.D.D.D.h.t.e.h.A.A.D.D.A.A.                                ",
"                                                A.D.D.D.D.D.D.A.S.D.D.D.A.D.D.D.D.D.D.H.A.A.A.                                  ",
"                                                >.A.D.D.A.A.D.D.A.H.A.H.A.D.A.A.A.D.D.A.H.A.v.                                  ",
"                                                  Z.D.A.D.D.D.A.D.H.H.A.D.A.D.H.D.D.A.D.S.>.                                    ",
"                                                    S.H.A.A.A.A.D.A.H.A.A.D.D.D.A.D.D.A.>.                                      ",
"                                                    Z.H.A.A.J.H.S.H.A.A.P.H.A.A.D.D.A.v.                                        ",
"                      ;.t.h.Z.                      M.D.D.g.- r.Q.J.L.L.g.Z.H.A.A.D.Z.                                          ",
"                      2.6.4 7 f.Z.b.                S.D.A.J.-.. @ >.: O + A.A.A.A.A.                                            ",
"                      1.<.E ..i a.k.A.Z.n.v.n.Z.Z.A.A.A.D.A.W.- X o o @ H.P.A.D.H.A.                                            ",
"                        1.*.  { c q w.Z.S.A.A.H.H.H.A.H.A.D.A.L.J.y.A.W.H.A.D.A.D.A.            n.A.Z.A.h.1.                    ",
"        n.n.                    W a h.t.t.0.e.h.D.A.H.S.Z.A.A.A.A.H.H.A.D.D.A.D.A.H.A.          v.Z.A.D.x.<.                    ",
"      r.x.x.Z.Z.              Z.l.f.r.r.Z.A.A.H.A.h.Z.t.x.A.D.D.H.A.D.D.D.D.A.D.H.A.A.A.Z.Z.Z.Z.A.A.A.t.6.y                     ",
"        > 5 8.u.A.Z.Z.Z.Z.Z.D.u.1.w.7.i.G.u.7.3.8.1.r.7.2.A.D.D.A.H.h.e.D.D.H.A.D.D.A.A.H.Z.A.x.z.a.3.<.i                       ",
"          ] p 5 &.s.z.z.x.d.1.: Z.i.q.6.%.< 6 , 0 v.x.<.i.A.A.D.H.N.; 9.D.G.A.D.A.A.D.A.D.A.w.5 e % * m.                        ",
"            P.! g % e w 0 L K Z.G.4.&.3 t V.V.( k S.D.A.D.D.D.A.T.I q s.D.A.D.D.A.A.A.A.D.D.D.N.t T _ ,.;.                      ",
"                  X.[ [ @.N C.h.6.2 f D .Xz.    9 4.A.D.A.D.A.D.M.B 4 z.D.A.H.S.e.G.H.A.h.h.D.D.E.T.S.e.2.h.Z.n.                ",
"            v.,.          9 f.<.y } #.          Z.h.h.D.D.A.D.T.d m 3 z.D.D.H.A.5.7.e.A.D.g.q.e.G.A.I.A.G.D.D.D.Z.n.b.g.*.      ",
"        Z.A.H.Z.        ;.u.&.u V.E.          ,.D.D.D.D.I.F.T.Y m V 4 e.D.D.H.M.8 <.7.4.e.A.S.t.0.2.e.e.4.2.q.2.u.z.p.6 Y       ",
"        S.P.H.Z.:.  Z.r.u.&.& X.).            A.H.A.D.A.H.T.Y Z A m q s.I.A.H.Z.v ) 1.&.6.6.u.t.h.t.y.r.r.r.r.w.1.4 g B         ",
"        0.x.A.H.A.A.e.6.1.P Z               Z.D.D.H.H.H.j.I Q |.  J & p.A.D.H.Z.  Y.C.r 4 5.<.< < %.3.3.3.a.x.P.D.N.W           ",
"          1.q.9.2.8.%.7 s ].              Z.H.A.A.S.k.m.l / d.    `.z 8.A.D.A.A.    c. XC k ^ _ _ W h z W T 4 3.A.x.l.          ",
"            1.1.6 e R {.z.              Z.H.H.E.T.u f n A oX      i.Q 2 e.D.A.A.            oXi.J.@X    { ' ^ r <.4.e.          ",
"                                    g.A.P.K.T.r z b H A Z         _.#.& 8.A.A.P.Z.                           X .<.x.S.          ",
"                                  Z.A.J.k.p h D | x.OX              F j 5.u.D.H.H.v.                        q 2 i.I.v.          ",
"                              >.A.P.k.u z Z M $.                      F & &.q.D.H.A.>.                      *.f.Z.n.            ",
"                            Z.A.P.j.) E O.                            /.^ y 8.e.A.D.A.n.                                        ",
"                          Z.G.J.j.R ].d.                                G.! ; 3.7.i.D.H.Z.                                      ",
"                        Z.J.G.k.z S                                       +.V q <.%.e.A.D.A.:.                                  ",
"                      v.H.H.k.) X.                                            A R y %.<.t.P.A.v.                                ",
"                      Z.H.J.M.` c.                                              }.s _ w &.u.H.A.>.                              ",
"                      Z.A.H.m.'.!.                                                d.oXC x 4 a.H.A.                              ",
"                      Z.H.H.M.!                                                          X~ q f.i.w.                            ",
"                      Z.H.H.k.t p                                                         B.v 5 6.e.                            ",
"                        Z.H.H.k.,.                                                          o.3 u.t.Z.                          ",
"                                                                                            7 f.P.A.                            ",
"                                                                                            0.D.Z.:.                            ",
"                                                                                                                                ",
"                                                                                                                                ",
"                                                                                                                                ",
"                                                                                                                                ",
"                                                                                                                                ",
"                                                                                                                                "
};
