/* XPM */
static char *_314c9c80d844fea8dae142e5e3735e4FtIxJwdj8TQaLCTF[] = {
/* columns rows colors chars-per-pixel */
"64 64 228 2 ",
"   c None",
".  c #020000",
"X  c #0C0100",
"o  c #0B090A",
"O  c #130101",
"+  c #1A0503",
"@  c #1B0B0A",
"#  c #190A05",
"$  c #111212",
"%  c #0B0B11",
"&  c #250300",
"*  c #2B0400",
"=  c #240C02",
"-  c #2C0A00",
";  c #2B0F0E",
":  c #330C00",
">  c #370A00",
",  c #391405",
"<  c #2B1816",
"1  c #3A1615",
"2  c #2A0F10",
"3  c #1F2325",
"4  c #333031",
"5  c #441400",
"6  c #491600",
"7  c #511B00",
"8  c #5D1C00",
"9  c #571600",
"0  c #4C1C1E",
"q  c #461B17",
"w  c #540D00",
"e  c #651D00",
"r  c #44230A",
"t  c #562204",
"y  c #572417",
"u  c #6C2400",
"i  c #662602",
"p  c #772803",
"a  c #6B3108",
"s  c #7A3405",
"d  c #682C17",
"f  c #772C18",
"g  c #713617",
"h  c #49352B",
"j  c #682724",
"k  c #6E3323",
"l  c #48413F",
"z  c #564038",
"x  c #73483B",
"c  c #464646",
"v  c #50575C",
"b  c #6A524C",
"n  c #695954",
"m  c #745E58",
"M  c #7E6A5C",
"N  c #5A5E62",
"B  c #66696C",
"V  c #747678",
"C  c #6D7173",
"Z  c #942E05",
"A  c #8A3601",
"S  c #9C3600",
"D  c #963908",
"F  c #863912",
"G  c #923415",
"H  c #A63806",
"J  c #B63C00",
"K  c #A33D1A",
"L  c #BA3D15",
"P  c #A02901",
"I  c #843129",
"U  c #963831",
"Y  c #A33D29",
"T  c #A63822",
"R  c #A73D38",
"E  c #D43F0C",
"W  c #9B4104",
"Q  c #9A460D",
"!  c #874417",
"~  c #984B17",
"^  c #9C551E",
"/  c #AC4203",
"(  c #A8440A",
")  c #BD4203",
"_  c #B34608",
"`  c #A54A17",
"'  c #B84818",
"]  c #A4531A",
"[  c #A9581C",
"{  c #8B4E24",
"}  c #93442D",
"|  c #9C5A2D",
" . c #935327",
".. c #894F3D",
"X. c #A35724",
"o. c #B84439",
"O. c #B54627",
"+. c #9F6637",
"@. c #AC6B3C",
"#. c #A56438",
"$. c #B56D3C",
"%. c #A2612C",
"&. c #CC4B0D",
"*. c #C54606",
"=. c #D54B0C",
"-. c #CB4315",
";. c #CC4E11",
":. c #C54517",
">. c #D6491D",
",. c #DA4917",
"<. c #D75318",
"1. c #C15010",
"2. c #E9480A",
"3. c #E64C13",
"4. c #E94E13",
"5. c #E44E19",
"6. c #EB5116",
"7. c #E6521B",
"8. c #EA541C",
"9. c #E5591E",
"0. c #E9581C",
"q. c #F45A1D",
"w. c #F35416",
"e. c #F04D0E",
"r. c #CC4D2D",
"t. c #C54A2A",
"y. c #DB4D21",
"u. c #D14C29",
"i. c #CA5121",
"p. c #DD5526",
"a. c #D6512A",
"s. c #DC5329",
"d. c #C54933",
"f. c #CB4C34",
"g. c #C4483A",
"h. c #C94A39",
"j. c #C1473C",
"k. c #DB5232",
"l. c #D65134",
"z. c #D24E32",
"x. c #E14F25",
"c. c #E45726",
"v. c #EA5723",
"b. c #E65826",
"n. c #EC5B23",
"m. c #E4562B",
"M. c #E65A29",
"N. c #EB5C2A",
"B. c #F15D22",
"V. c #F35F2B",
"C. c #F85F28",
"Z. c #C07032",
"A. c #ED622D",
"S. c #F56127",
"D. c #F96125",
"F. c #F76129",
"G. c #F9632C",
"H. c #EB6B3C",
"J. c #E56433",
"K. c #FB6C35",
"L. c #8C5D4E",
"P. c #905240",
"I. c #9B6A4F",
"U. c #8C6255",
"Y. c #966353",
"T. c #AC7249",
"R. c #B7764A",
"E. c #B97B52",
"W. c #AC724B",
"Q. c #8C7A6E",
"!. c #A47F6C",
"~. c #CE724E",
"^. c #EB6E47",
"/. c #EB7448",
"(. c #F77948",
"). c #E67A57",
"_. c #F27E51",
"`. c #BA835B",
"'. c #BC8964",
"]. c #B68968",
"[. c #BC9576",
"{. c #ED815B",
"}. c #F5855A",
"|. c #C48C65",
" X c #C98F69",
".X c #C79877",
"XX c #C99064",
"oX c #ED8A67",
"OX c #F48E6A",
"+X c #EC916E",
"@X c #FE9169",
"#X c #EA9679",
"$X c #F29877",
"%X c #CBA07F",
"&X c #F4A17F",
"*X c #7E858A",
"=X c #8B8888",
"-X c #979696",
";X c #A69995",
":X c #B29889",
">X c #BAA29B",
",X c #95A0A5",
"<X c #B1B1B0",
"1X c #C59E80",
"2X c #E89E83",
"3X c #C8A388",
"4X c #D2A686",
"5X c #CBAC93",
"6X c #CAA59A",
"7X c #D1B098",
"8X c #FCAB8B",
"9X c #F6A78B",
"0X c #F3AD93",
"qX c #FBB69B",
"wX c #EEA186",
"eX c #DAB3A7",
"rX c #F7BBA6",
"tX c #F6C7B6",
"yX c #F8D1BF",
"uX c #C6C8C9",
"iX c #DAD6D2",
"pX c #FAD5C7",
"aX c #EDD7D0",
"sX c #FBE6DC",
"dX c #E7E8E8",
"fX c #FAE8E2",
"gX c #FEF2EC",
"hX c #FFFEFE",
/* pixels */
"                                                                                                                                ",
"                                                                                                                                ",
"                                                                                                                                ",
"                                                                                                                                ",
"                                                                                                                                ",
"                                                                                                                                ",
"                                                                                                                                ",
"                                                              X.A u p W %X                                                      ",
"                                                            A 5 . . . O p                                                       ",
"                                                          W = . l -X<XB ,  X                                                    ",
"                                                        R.: % <XhXgXpXfXiX#.                                                    ",
"                                                        u . <XgX).p.,.,.@X$.4X                                                  ",
"                                                      .X& N gXa.,.c.b.b.9.=.#.                                                  ",
"                                                      @.X uXOX,.M.c.b.b.N.S./                                                   ",
"                                                      ! < aXc.c.c.M.v.v.v.S.=.T.                                                ",
"                                                      s c tX,.M.M.M.v.n.n.n.B.(                                                 ",
"                                                      F c tX3.M.v.n.n.n.n.n.D.&.].                                              ",
"                                              .X|.    | h qX3.N.n.n.n.n.B.B.B.0.`                                               ",
"                                              e 8 [   .Xr eX8.n.n.n.n.B.n.q.n.D.) [.                                            ",
"                              Q D `.        R.= % - D Z.t ;XK.0.n.n.n.B.n.B.B.B.9.X.          $.                                ",
"                            ~ - = e         s 4 dXc . i 7 B @X6.S.n.S.0.B.B.B.B.S.' ^       ].w .X                              ",
"                            5 @ O.H s       w V qXpX,X3 . C 8Xe.S.q.0.S.S.v.0.n.n.<.&.H 7X   .* '.                              ",
"                          E.O f ^.@XJ @.    > -XK.c.rXsXuXdX}.e.i.' e.0XfX).0Xq.f . , 1./ 7X{ * 4X                              ",
"                          { O K ).2XB.H     : 6XG.9.e.S.}.(.e.+Xd #XwXtXhXoX^.C.a o . @ :.` a 6                                 ",
"                          a + o.E 2XpXE T.4X, 6XS.n.S.n.8.2.qX  S 8X2X$XfXN.5.n.i.Z k $ ; q.F t                                 ",
"                          7 ; h.u.).$Xw._ @.r 5XS.0.n.n.6.8X  x 5.x.7.c.c.v.M.N.7.oX    3 Z ~.Q.E.                              ",
"                          5 1 h.f.y.3.B.<.( t >XG.0.S.w.&X    G V.c.c.c.c.N.N.7./.        h I.  R.                              ",
"                          > q h.r.m.v.v.S.1.t -X}.0.w.~.    =XL V.c.m.M.v.c.M.6.            Q.  1X.X                            ",
"                          - 0 h.r.p.b.B.B.v.A U.8Xe.,.:X    m -.N.c.c.c.v.M.9./.                  R.                            ",
"                          - 0 h.r.p.b.n.B.B.1.A 7XG.`       b y.M.c.M.c.c.M.7.0X                  @.                            ",
"                          * 0 h.f.s.c.n.B.n.B._ ( 0.Y.      m -.N.c.M.c.c.N.v.                    E.                            ",
"                          - 0 g.t.s.c.n.B.q.B.B.B.&.;X        p G.p.M.c.v.c.H.                  *XW.                            ",
"                          > 0 j.d.a.c.n.n.S.0.n.D.T           h L N.c.c.M.7._.            $     v I.5X                          ",
"                          > q h.d.a.c.n.0.q.S.S.N.}             q c.m.c.M.5.oX            .     V  .                            ",
"                          5 < R d.a.c.n.S.n.q.n.x.P.              p V.c.N.5.).          C .   8X}./                             ",
"                          7 2 o.t.a.c.n.n.q.n.N.y.L.              z >.N.c.v.H.            4   6.q.&.'.                          ",
"                          a @ o.d.r.c.n.B.B.q.M.y.U.              *XH F.c.M.4.qX          2XB.n.V.8.X.                          ",
"                          s O R d.a.p.M.n.B.B.M.y.U.              =XK F.c.M.v.c.OX0X0X$XH.w.0.B.n.B._                           ",
"                          { O U d.a.p.n.B.B.B.m.y.L.              b :.N.c.v.c.M.3.3.4.6.8.n.B.n.0.D.)                           ",
"                          I.O I h.r.p.M.n.B.B.M.y...              y n.c.c.M.M.4.+X{.8.N.N.n.n.n.n.D.*.5X                        ",
"                          |.+ j h.r.p.b.B.B.q.N.m.}             C H V.m.M.v.v.b.fX{.8.n.n.n.n.n.n.C.*.7X                        ",
"                            * 0 h.r.p.c.n.B.B.0.N.T             y n.m.c.c.M.7.).hX+X2.N.n.n.n.B.n.B._                           ",
"                            5 < g.r.s.M.n.S.B.B.G.L ;X        V H V.c.c.c.M.7./.hXfXH.7.n.n.n.n.B.9.X.                          ",
"                            a + o.t.a.c.n.0.B.<.) 8.Y.        b u.M.c.c.c.v.M.7.).tXpXwXA.0.n.n.B.J 5X                          ",
"                            | X U z.a.c.n.B.0.] #./ '         m E m.c.c.c.M.b.n.7.3.n.A.M.n.n.S.=.#.                            ",
"                            '.+ j l.a.c.n.D.) [.  '.Z !.      =XK A.c.m.c.c.b.b.v.M.v.9.n.n.B.9.W                               ",
"                              6 ; f.a.c.n.0.`       [.A 3X      d m.m.c.b.c.v.v.v.b.n.n.v.n.A.D 5X                              ",
"                              ! X } s.s.F.*.].    [.^ / &.(.tX  -XZ C.m.M.v.M.v.M.v.b.n.S.9.S .X                                ",
"                               X& q m.N.v.Q     X.H =.n.N.8.6.}.yXb ' S.c.N.M.N.c.N.V.S.&.D 1X                                  ",
"                                s . f t.Z 3X  ~ u N.M.p.c.M.n.6.w.J.K 0.n.n.0.n.q.9.&.S ^                                       ",
"                                  8 + 5 X.    : f k.r.s.p.c.v.n.n.q.D.S.q.B.0.D.;.D %.                                          ",
"                                    ] `.      = y k.r.a.s.c.M.v.n.n.0.B.B.n.q.9.Q                                               ",
"                                              p o Y k.r.a.s.c.M.n.0.S.B.B.B.D.H 3X                                              ",
"                                               X7 @ Y s.u.a.s.m.M.b.S.0.n.D.) T.                                                ",
"                                                R.8 @ I k.s.a.p.c.v.b.0.D.;.^                                                   ",
"                                                  XXp - q O.s.M.M.M.n.G.&.Q                                                     ",
"                                                      [ t : q K i.s.b.) Q                                                       ",
"                                                        %X] u 6 7 u A @.                                                        ",
"                                                              XX$.`.                                                            ",
"                                                                                                                                ",
"                                                                                                                                ",
"                                                                                                                                ",
"                                                                                                                                ",
"                                                                                                                                "
};
