/* XPM */
static char *b4f8baadecbb4c0efa273a0c692549878XRKhbQyCU3XRLB3[] = {
/* columns rows colors chars-per-pixel */
"64 64 232 2 ",
"   c #010101",
".  c #070806",
"X  c #0C0C0B",
"o  c #110E0C",
"O  c #0D1709",
"+  c #13120E",
"@  c #121C0D",
"#  c #0F0F10",
"$  c #141412",
"%  c #191512",
"&  c #161A15",
"*  c #1C1915",
"=  c #1C1B1B",
"-  c #221C15",
";  c #231E19",
":  c #15270E",
">  c #1C2518",
",  c #1F3714",
"<  c #25221C",
"1  c #2B241C",
"2  c #2E2E1B",
"3  c #2C291E",
"4  c #1C1E21",
"5  c #242323",
"6  c #2A2B22",
"7  c #2C2B2C",
"8  c #332C22",
"9  c #382E24",
"0  c #2F392B",
"q  c #383529",
"w  c #353535",
"e  c #373738",
"r  c #3A3A3B",
"t  c #443D2E",
"y  c #48392D",
"u  c #463E31",
"i  c #234316",
"p  c #32452B",
"a  c #3B4238",
"s  c #396924",
"d  c #45422E",
"f  c #494432",
"g  c #544C37",
"h  c #46583D",
"j  c #56533B",
"k  c #5B543D",
"l  c #644D3F",
"z  c #61573E",
"x  c #476F37",
"c  c #487336",
"v  c #444343",
"b  c #434940",
"n  c #4C4B4B",
"m  c #5A5743",
"M  c #545454",
"N  c #575759",
"B  c #5B5A5A",
"V  c #6B5743",
"C  c #635B42",
"Z  c #755E48",
"A  c #605F5F",
"S  c #536949",
"D  c #6B6246",
"F  c #6C694B",
"G  c #75684B",
"H  c #736B4C",
"J  c #7B744E",
"K  c #716A56",
"L  c #787551",
"P  c #7A7654",
"I  c #646464",
"U  c #696867",
"Y  c #6C6C6C",
"T  c #6F746A",
"R  c #747473",
"E  c #777778",
"W  c #7C7B7B",
"Q  c #8C7056",
"!  c #857856",
"~  c #807E7E",
"^  c #4B9A29",
"/  c #4C9F2A",
"(  c #4C8735",
")  c #4E9E32",
"_  c #4EA12B",
"`  c #52A32E",
"'  c #4FA032",
"]  c #54A433",
"[  c #58A735",
"{  c #57A835",
"}  c #59A936",
"|  c #57A638",
" . c #5BA639",
".. c #57A838",
"X. c #5CAA3A",
"o. c #5FB13D",
"O. c #62AD3D",
"+. c #64B23D",
"@. c #68B23D",
"#. c #598747",
"$. c #638354",
"%. c #6A9457",
"&. c #6A9359",
"*. c #5DAD40",
"=. c #5FB340",
"-. c #63AC42",
";. c #68AC4B",
":. c #64B341",
">. c #69B644",
",. c #6BBA47",
"<. c #6CB54D",
"1. c #6DBA49",
"2. c #70BD47",
"3. c #71BD4A",
"4. c #6DAC53",
"5. c #72A75C",
"6. c #74B457",
"7. c #759667",
"8. c #7F9B74",
"9. c #7AB263",
"0. c #73C04A",
"q. c #87835B",
"w. c #8B835C",
"e. c #97885E",
"r. c #898560",
"t. c #968B64",
"y. c #9A9569",
"u. c #81897C",
"i. c #AA8665",
"p. c #B18D6B",
"a. c #A79867",
"s. c #AC9B6B",
"d. c #B39D66",
"f. c #B89568",
"g. c #B39E6A",
"h. c #A49F71",
"j. c #BC9772",
"k. c #81B16C",
"l. c #A8A16E",
"z. c #B5A16B",
"x. c #BBA56C",
"c. c #ADA674",
"v. c #ACA776",
"b. c #B5A875",
"n. c #BDA971",
"m. c #BCB57C",
"M. c #C09872",
"N. c #C1A76F",
"B. c #C1AB6F",
"V. c #C1AB72",
"C. c #C9A77A",
"Z. c #C9B375",
"A. c #C3B67A",
"S. c #D4BE7C",
"D. c #83C15F",
"F. c #8AC46E",
"G. c #7F7F80",
"H. c #807F81",
"J. c #848484",
"K. c #898787",
"L. c #8C8C8B",
"P. c #889481",
"I. c #91918F",
"U. c #949493",
"Y. c #989897",
"T. c #9A9A9A",
"R. c #98B08E",
"E. c #BDB18C",
"W. c #9FA0A0",
"Q. c #A5A5A5",
"!. c #ABABAB",
"~. c #ABBBA2",
"^. c #B4B4B3",
"/. c #B8B8B7",
"(. c #BCBCBC",
"). c #C3BA82",
"_. c #E0AF84",
"`. c #E5B383",
"'. c #F0B786",
"]. c #F6BC85",
"[. c #F9BD84",
"{. c #F5BE8A",
"}. c #F9BF89",
"|. c #A6C899",
" X c #A9D095",
".X c #CCC488",
"XX c #D4CA8B",
"oX c #DCD38E",
"OX c #DAD491",
"+X c #F6C086",
"@X c #F4C28B",
"#X c #F9C089",
"$X c #FFCB8F",
"%X c #FECB92",
"&X c #F8C898",
"*X c #E7DC95",
"=X c #EAE39B",
"-X c #F3E99A",
";X c #FAEC9D",
":X c #FDF39E",
">X c #FFFC9E",
",X c #C2C2BF",
"<X c #F3CFA5",
"1X c #F6D2AC",
"2X c #F8D4AD",
"3X c #F6D9B9",
"4X c #F8EEA2",
"5X c #FDF4A4",
"6X c #FFF9A6",
"7X c #FCF7A9",
"8X c #FFFDAB",
"9X c #FFFFB2",
"0X c #C1BFC1",
"qX c #C3C3C3",
"wX c #CCCBCB",
"eX c #D4D5D4",
"rX c #D9D9D9",
"tX c #D8DAD9",
"yX c #EBDECE",
"uX c #CEE4C4",
"iX c #DAEBD2",
"pX c #F6E4CA",
"aX c #E5E0D7",
"sX c #FAEDDA",
"dX c #E2E2E2",
"fX c #E8E8E7",
"gX c #EDEDED",
"hX c #F2EFEA",
"jX c #F9F4E8",
"kX c #F5F5F4",
"lX c #F9FAF5",
"zX c #FDFEFE",
/* pixels */
"] ] ] ] { { { { } } } o.} { o.o.o.o.o.o.o.o.o.o.o.=.:.:.=.:.0.:.0.o.o.0.,.,.0.,.1.0.0.0.0.0.0.0.0.0.0.0.0.0.0.0.0.0.0.0.0.0.0.0.",
"_ ` ` ] { ` { { } } } } o.o.} } o.o.o.o.o.o.o.=.=.=.=.=.:.=.o.=.0.:.0.:.,.,.,.,.0.1.2.2.3.0.0.0.0.0.0.0.0.0.0.0.0.0.0.0.0.=.0.0.",
"_ ` ] ] { { } } } } o.o.} o.o.o.o.o.o.+.o.o.+.+.=.=.=.=.:.+.:.:.o.0.+.0.,.@.,.0.,.0.1.0.3.3.0.0.0.0.0.0.0.,.0.0.0.0.0.0.0.0.:.0.",
"` ] ] ` { { { { } o.} } o.o.} o.o.o.o.o.o.o.o.o.=.+.o.,.:.=.+.:.=.:.:.:.,.,.,.,.,.,.0.1.3.0.3.0.0.0.0.0.0.0.0.0.,.,.,.,.+.0.:.0.",
"` ' ] ] ] { { { X.} X.X.} o.} o.+.X.:.:.o.=.+.+.+.=.:.o.:.:.:.:.:.:.:.,.>.>.,.,.,.1.,.0.0.1.0.,.3.3.0.0.,.0.0.o.:.0.0.0.0.0.0.:.",
"` ` ] ] ] { { { } X.X.-.4.8.8.9.9.9.6.<.+.o.+.+.+.+.=.:.:.+.=.:.:.:.:.:.>.>.>.,.,.1.,.,.,.0.,.0.2.2.,.0.0.,.0.0.0.0.:.,.0.=.:.0.",
"` ` ] ] { { { { X.O                   X 5 b $.5.0.:.:.o.=.=.=.:.:.,.:.:.:.,.>.>.1.1.,.,.,.,.0.,.1.0.,.,.:.0.0.:.:.0.,.,.,.0.0.0.",
"_ ] ] ` ] { ( : # v I E G.G.E Y N v 7 &         .   > S 5.6.:.:.=.:.,.:.:.:.>.>.:.<.,.,.,.,.,.,.1.,.,.0.0.:.:.0.=.0.,.,.,.,.,.:.",
"] ' ] ' ` c   W gXzXzXzXzXzXzXzXzXzXzXiXtX0XT.W M 5 .         5 M P.R.F.,.:.:.,.,.:.,.,.,.,.,.,.0.,.,.1.0.=.=.,.0.=.,.,.,.,.,.,.",
"' ] _ ] ... v zXzXtX!.T.U.I.Y.Q.^.wXdXkXzXzXzXzXzXlXdX(.L.N 5         @ n u.k.,.,.,.>.,.>.,.,.,.=.0.=.,.,.,.0.,.=.0.,.>.,.,.,.1.",
"` ' ] ] #.  T.zXG.                    $ 7 M W gXzXzXzXzXzXzXzXtX!.R e .       = $.,.>.<.>.<.,.,.,.,.=.0.=.0.=.0.,.,.,.,.,.,.<.,.",
"' ] ] ] c   qXzXn   t V Z Z V l y 9 - .     % yXjXlXlXzXzXzXzXzXzXzXzXdX!.R 7       O #.,.>.>.,.,.<.,.,.1.=.,.,.,.,.,.,.,.<.1.1.",
"_ ] ) ] x   qXzXY   ! 2X%X%X%X%X$X$X{.`.C.i.i.+X[.@X<X2XpXsXlXlXzXzXzXzXzXzXzXtXY.M $   . : >.,.,.1.,.=.>.,.>.1.:.,.1.1.,.<.,.1.",
"' ' ] ' #.  Q.zX(.  * _.{.].].{.].}.}.#X$X%X@X[.[.[.[.[.[.}.@X<X3XsXaXv Y !.fXzXzXzXgX!.I =   : s 1.,.,.>.>.,.=.,.,.,.:.,.1.1.1.",
"' ' ) ] |   Y zXzXn u `.$X].{.}.{.}.}.{.[.].{.}.@X#X}.}.#X}.[.[.].$Xp.      X v K.wXzXzXzXgX!.M X . s =.>.>.,.>.,.,.1.1.1.1.1.1.",
"' ' ' ' ] @ = gXzXhXlX&X[.#X#X#X#X}.#X}.}.}.}.}.}.}.}.}.#X}.}.}.@X#X].M.Q y X       7 R qXzXzXzXdXL.7 . , >.>.>.>.,.1.<.1.<.1.1.",
"' ' ' | ' (   T.zXlXzXjX@X[.#X}.#X}.}.}.#X}.#X}.#X#X#X#X#X}.}.}.+X{.}.$X%X%X`.p.V ;       7 ~ eXzXzXkX!.r   , ,.>.1.,.<.3.3.<.1.",
"' ' ' ' | ' @ 5 gXzXzXzXsX{.[.#X}.}.}.}.}.}.#X#X}.#X#X}.#X#X#X#X}.}.}.}.{.[.#X$X%X@XM.Z ;     . v !.kXzXzX/.r   ,.,.,.,.<.1.3.3.",
"' ' ' | ' | (   Y zXzXzXzXjX@X].#X@X{.}.}.#X}.#X#X#X#X#X}.#X}.}.}.}.[.#X}.#X@X].{.}.%X%X#XM.z %     7 U.gXzXzXT.= @ 1.,.3.<.3.<.",
"^ ' ' ' | ' | s   !.zXlXzXzXjX&X+X{.$X[.}.#X[.@X}.#X}.#X#X#X#X}.#X}.#X#X}.}.#X[.}.}.}.[.[.%X%X`.Q 8     4 Y.kXzXdXM   1.<.3.3.3.",
") ) ) | ' ' | | s > eXzXlXzXzXzXK 1 C.$X}.].@X}.#X#X#X+X#X#X#X#X#X#X}.}.}.#X#X}.}.}.}.}.}.].].#X%X%Xp.y     w qXzXzXW   3.3.<.3.",
") ) ) ' ' | ' | ] ) p dXzXzXzXkXu   X Q @X$X{.].}.[.{.#X#X#X}.#X#X#X#X}.#X#X}.#X}.}.}.}.#X}.@X{.{.#X$X%Xp.8     ~ zXzXJ.  3.3.3.",
") ) ' ' ' | ] | ] { ] a dXzXzXzXkXR     6 p.%X$X].{.}.#X}.[.+X}.#X#X#X#X}.#X#X}.}.}.}.}.}.#X#X}.#X}.].[.$X@XQ X   A lXzXN   6.3.",
") ) ' ' ' ' ] ' ] { ..i 7 tXzXlXzXzXqXw     y M.$X%X}.}.#X#X}.#X#X#X}.#X#X#X#X}.#X#X#X#X}.#X#X#X{.+X#X}.].[.%Xj.*   Y zXeX. c <.",
") ) ) ) ) | ) ) | | | | . = qXzXkXzXzXkXY.=     y p.@X%X}.{.+X}.}.}.#X#X#X#X#X#X#X#X#X#X#X#X#X}.#X#X}.}.+X+X].$X).o   wXzXv @ ,.",
") ) ) ) ) | | | ] ] | | #.  X Y.zXzXkXzXzXgXK.=     1 f.$X{.#X#X#X#X#X[.#X#X#X#X}.#X}.#X#X}.#X}.#X}.@X#X#X#X#X'.#XV   U.zXN @ ,.",
") ) ) ) | ) ' ] ] | | ....%.    A gXzXzXlXzXzXgXI.7   ).%X].[.].#X+X#X}.{.#X#X{.}.}.}.@X#X}.}.[.}.#X{.}.[.[.[.'.&XE.G.wXzXw ( ,.",
") ) ) ) ' ' | ] ] | | ....*.5.#   4 ^.zXzXlXzXzXzXkX0XkXkXpX1X&X].'.[.[.[.[.[.[.[.S.].].[.[.[.[.[.].{.&X&X2XpXsXlXzXkXzXY.  >.>.",
") ) ' ' | ' ' ] | | ..........9.v     N tXzXzXlXkXzXzXzXzXzXzXzXzXsX3X1X1X1X1X2X1X1X3X3X3XpXpXpXsXsXhXlXzXzXzXzXzXzXlXL.  o :.>.",
") ) ' ' ' | ] | ' | ......X.*.=.kXI.$   X Y dXzXzXzXzXzXgXqXU.K.Q.tXzXzXzXzXzXzXzXzXlXzXzXzXzXzXzXzXzXzXzXzXzXzXkX^.r     >.:.:.",
"' ' | ' ] ] ] ] ] ......*.*.*.o.X. XgXE #   # Y 0X(.!.U =           r Q.eXdXhXzXzXzXzXzXzXzXzXzXzXzXzXzXzXgX(.E 5     6 -.:.:.>.",
"' ' ' | ] | | ] ............|.uXlXeX/.Y.7                 1 g k t $       + = 7 n R U./.tXkXzXgXtX(.T.Y r #       a :.+.:.:.>.-.",
"' ] ] ] ] ] ] { ....<.uXzXwXU.N 5       . .   .     - k t.x.V.V.n.s.H ;                   4 7 = .         X e &.:.:.+.:.:.>.:.:.",
"] ] ] ..] ] { { 6.kX(.Y 6         1 m y.K $     - H s.B.x.f.g.g.z.z.n.z.k     ; t.c.K d -             & R tX>.:.:.:.-.>.:.-.:.:.",
"] ] { ] ..{ { tXW 5       < F b.*X7X=XF .   ; G g.n.z.d.x.n.g.d.x.n.z.z.V.w.=   * y.7X9X5XXXc.L d &       = I R.;.:.:.-.>.:.:.:.",
"] ] ] ..X.~.B .     8 q..X7X8X*X.X).-   % C z.Z.V.V.V.V.! y % # < g a.x.d.N.g.f     ; P .X8X8X9X7X*Xb.L 8       7 I.<.>.>.>.@.;.",
"` ] ] ;.Y .   # C ).;X8X8XE.q           f C.z.! G D ! k       X     o ! N.d.g.n.! 1     . F w.w.).:X9X8X;X.X! 3     4 T.;.>.>.>.",
"] ] 4.5   X H OX8X5X>XOXj     % 8 * .     - 6           X ~ tXfXwXN   . e.Z.N.x.Z.Z.z .           6 r.-X5X:X8X-Xb.u     n  X6.>.",
"[ 4.X   d XX6X;X;X5Xy.&   o C a.n.g.t.D $     - f u     Q.zXzXzXzXzXY   < Z G J ! g .   + f C g -     3 ).7X-X;X5X7Xc.<   7 fXD.",
"-.5   F 7X:X5X;X4XF     y a.V.x.g.g.N.a.#   z z.Z.!   n zXlXzXzXlXzXfX&             X z s.V.V.V.z.! 1   . c.5X-X;X5X7X=Xd   N zX",
"7.  f 6X;X4Xq.=Xh.  # H x.x.d.g.g.g.n.u   f Z.d.B.k   L.zXlXzXzXzXzXzXv   8 9 *     % s.N.d.d.d.g.n.x.g   # OX9X.Xy.5X:X=X&   wX",
"B   l.>X5Xq.  0 q   G S.z.g.g.d.g.z.d.*   t.x.d.V.m   K.zXlXzXzXzXzXzXv   e.Z.g.t.9   1 z.x.g.d.g.g.g.Z.u   t.v.$   b.;X6Xm   Q.",
"$.  P 6X;X.Xt       8 L i.z.B.V.V.B.a.  * s.d.d.x.J   v zXzXzXzXzXzXdX# . e.d.d.x.g.;   t n.x.V.V.B.n.s.8   X     j *X4X6Xq   /.",
" .  X E.8X5X4Xl.t         > t z G t.G   8 V.N.V.V.x.-   U.zXzXzXzXzXB   d Z.B.B.N.V.s.%   C s.! G g 8 X       p c.5X5X8Xr.  7  X",
"` h   # w.-X8X8X5X.Xq.f &               X 1 q y g k q   . U qXtX/.v   . C L G D C g g =   . .         X q P S.5X8X7X*XF     Q.k.",
"` ` &     < q.XX5X9X9X6X=X).h.L j q < # .                                                 . & q k q.b.oX5X8X8X5XXXP &     8. X,.",
"` ` ` @       . q P b.oX5X8X9X9X8X8X4X*XXXA.b.a.t.q.L F F C q 3 d m g j k k D H P w.y.c.).oX-X7X9X9X8X8X=XE.q.t .       L.lX@.@.",
"` ` ] ] p   .         . 3 g L t.m.XX*X:X6X8X9X9X9X9X9X9X9X9X8X8X9X9X9X8X9X9X9X9X8X9X9X8X8X5X-XXXm.t.F d &           6 ~.iX1.@.@.",
"` ` { { ` %..   . X = *             X * 8 d g D F L q.t.y.y.l.c.c.c.b.c.c.l.y.y.w.P F k d 2 +             .     # H.uXF.>.>.@.@.",
"` { { ` { { { x .   X e A Y I n w = .                                                       # 4 7 < X       $ R |.>.>.@.@.@.@.@.",
"` ` { ` { } } X.[ #.+     & n W T.!.!.Q.Y.L.E T U A M n n v r r r e r e r r v M B U E J.L.K.R n 5 .     7 P.@.@.@.@.@.@.@.@.@.@.",
"` } ` } } } } }  . .X.4.S X       = v U K.W.^.(.,XqXqXwXqXqXqX,X0XqXqXqXqXqXqX(.^.Q.J.I e #       2 T +.+.@.+.@.@.@.@.@.@.@.@.@.",
"` } } } } } } X.X.X.X.X.] X.4.#.p           . 5 w b N U T E G.J.J.J.W R Y N v 7 X         X h 7.+.o.O.+.@.@.+.@.@.@.@.@.@.@.@.@.",
"` ` ` } } ` } } { X.X.X...X.-. . . .-.&.S 7 X                                   . 7 M 7.5.O.O.O.+.+.@.+.@.+.@.@.@.@.@.@.@.@.@.@.",
"` } } } } } } } X.} X.X.X.X. . . .*.-.X. .X. .<.9.T.L.E U B M n n n M A R L.!.k.<.X.o.X.O.O.O.O.O.O.+.+.+.@.+.@.@.@.@.@.@.@.@.@.",
"` ` ` ` ` } } } X.} X.X.X. .*.X. . . .X.X.X. . . . .X.X.X.X.X.-.X.-.O.X.X.O.o.O.-.+.X.+.-.O.O.O.+.O.O.+.>.O.@.@.@.@.@.@.@.@.@.@.",
"` ` ` ] ` { { { } } } o.......o.O.[ O. . . . . . .O. .O.O. .[ O.X.O.X.O. .X.-.O.O. .O.O.O.O.O.O.O.O.@.} @.@.@.@.@.@.@.@.@.@.@.@.",
"` ` ` ] { { { { } } } } } } } } O.} ` O. . . .O.O.` O. .[ O. .O.X. .O. .O.O.-.X.-.O.O.-. .O.O.O.O.O.@.@.@.@.@.@.@.@.@.@.@.@.@.@.",
"` ` ` ] ` { { { ..{ { { } } ....O.} } } O. . .} [  .O.[ [ O.O. .X. .O.-. .O.X.-. .O. .O.-.O.O.O.O.@.@.@.@.@.@.@.@.@.@.@.@.@.+.+.",
"` ` ` ` ` ` ] ` ] { { { ....} ..} }  . .[ } O.} O. . . .[ [  . . .O.X.X.O.O.X. .O.O.-.O.O.O.O.O.O.O.@.} @.@.@.@.@.@.@.@.@.@.@.@.",
"_ ` _ ` ` ] ] ] ` { { ` ..{ { { [ [  . .} } [ @.[ O.[ O.` O.[ [ }  . .O. . .O. .O. .O.O.O.O.O.O.@.@.O.@.@.@.@.@.@.@.@.@.@.@.O.@.",
"/ / / ` ` _ ` ` ` { ` { { { ] { [ } } } } } } } [ [ [ [ O.[  .O.O.O. .O.O.O.O.O.O. .O.O.O.O.@.O.@.O.O.@.@.@.@.@.@.@.@.@.@.O.@.} ",
"^ _ / _ _ _ ` ` ` ` ] { ] { { { [ [ } } } } } } } } [  .` O.} } } O. . .O. . .O.O.O.@.O.O.O.O.@.O.@.@.@.@.@.@.@.@.@.@.@.@.@.@.@.",
"^ ^ / / / _ _ ` ] ] ` ] ] ] [ [ [ [  .} } O. .} @.}  . .O.[ O.O. .} O.O. .O.X.O.O.O.O.O.O.O.O.O.O.@.@.@.@.@.@.@.@.@.@.@.@.@.@.} "
};
