/* XPM */
static char *_0c18ffe5c4b444cf97fde3a756f40ebs4aK7wi34zwTxADO[] = {
/* columns rows colors chars-per-pixel */
"64 64 106 2 ",
"   c #006E00",
".  c #00660F",
"X  c #00680F",
"o  c #007002",
"O  c #007305",
"+  c #007507",
"@  c #007708",
"#  c #00780A",
"$  c #007B0C",
"%  c #00790F",
"&  c #007D0E",
"*  c #006A10",
"=  c #006D10",
"-  c #066C11",
";  c #006E1E",
":  c #007211",
">  c #007411",
",  c #0D7214",
"<  c #0D7614",
"1  c #007B12",
"2  c #007E10",
"3  c #007B17",
"4  c #007E15",
"5  c #00741B",
"6  c #00701D",
"7  c #00721C",
"8  c #007918",
"9  c #137916",
"0  c #197F18",
"q  c #005D27",
"w  c #005F26",
"e  c #006423",
"r  c #006622",
"t  c #006225",
"y  c #006B20",
"u  c #008011",
"i  c #008213",
"p  c #008014",
"a  c #068114",
"s  c #068615",
"d  c #0D8016",
"f  c #0D8B17",
"g  c #0C8A19",
"h  c #198419",
"j  c #198619",
"k  c #139019",
"l  c #19921F",
"z  c #19941C",
"x  c #268B1D",
"c  c #26961F",
"v  c #209720",
"b  c #2D9220",
"n  c #269B23",
"m  c #269D20",
"M  c #269926",
"N  c #2C9E28",
"B  c #339822",
"V  c #339C22",
"C  c #399E24",
"Z  c #2DA122",
"A  c #33A223",
"S  c #33A624",
"D  c #39A526",
"F  c #39AA26",
"G  c #32A12B",
"H  c #32A12C",
"J  c #40A427",
"K  c #40AF28",
"L  c #4DB12B",
"P  c #4DB52C",
"I  c #4DB82D",
"U  c #53B72E",
"Y  c #53BD2F",
"T  c #4CB630",
"R  c #4CB334",
"E  c #4CB138",
"W  c #59BC38",
"Q  c #59BA3C",
"!  c #59C131",
"~  c #5FC238",
"^  c #60C533",
"/  c #66CA35",
"(  c #66C739",
")  c #65C53D",
"_  c #6CCD39",
"`  c #72D13D",
"'  c #65C044",
"]  c #71C84B",
"[  c #79D441",
"{  c #7FD745",
"}  c #7FD549",
"|  c #8BDE4D",
" . c #85D551",
".. c #8BDB51",
"X. c #8BDA53",
"o. c #98DF5D",
"O. c #98E357",
"+. c #98E455",
"@. c #9EE759",
"#. c #9EE35F",
"$. c #B1EE6A",
"%. c #B1F165",
"&. c #B1F166",
"*. c #B7F46A",
"=. c #BEF86E",
"-. c #CAFE76",
/* pixels */
"i i i i i i i i i i i i i i i i i i i i i i i i i i i i i i i i i i i i i i i i i i i p i i i i i i i i i i i i i i i i i i i i ",
"i i i i i i i i i i i i 2 O O O O O i i i i i i i i i i i 5 ; i i i i i i i p 4 r r 4 p i i i p i i i i i i i i i i i p i i i i ",
"i i i i i i i i i S f i i # # # # # i i i i i i i i i i i 6 t 6 i i i i i i i 4 6 6 4 i i i i p p 6 i i i i i i 5 6 6 6 p i i i ",
"i i i p 8 i i i i / z i i i i i i i i i i i i G G G G i i 5 r r i i f z z z z z z i i i i i i 4 6 q i i i i i i 6 r r r 4 i i i ",
"i i i 8 q i i i i / z i i i i i i i i i i i i -.-.-.-.i i i i i i i S / / / / / / i i i i i i r q q i i i i i i i i i i 4 i i i ",
"i i 6 r i i i z / / z i i i q q r i i i S { -.-.{ / / i i i i i i i i z / -.+./ / / z i i i q 8 i i i i i i i / / / / i p i i i ",
"i i 8 5 i i i n +./ z i 4 ; q ; 5 i i m I ` +.+.T S S i i i 4 6 i i i f S -.%.| / / z i i i 6 4 i i i i z S S / / / / S S z i i ",
"i i i i i i i G -./ z i 8 r r 3 i i z Y / / / / z i i i i 4 6 q i i i i p %.=.%./ / Z f i i i i i i i k K / / / / / / / / S i i ",
"i i i i i i p H -./ z i i i i i i i / / / / / / z i p p p ; w w i i i i i / +.%./ / / S i i i i i i i I / / / / / / / / / S i i ",
"i i i i i i S { -./ z i i i i i i i / / / I i i i i i p r w r i i i i i i i S / / / / S i i i i i i i I / / / / / / / -.-.+.I i ",
"i i i i i i Q *.-./ Y P F i i i i i / / / I i i i i i y w y 3 i i i i i i i f Z / / / ! F i i i i i I ^ / / / / / | %.-.-.=. .i ",
"i i i i i i ' =.+./ / / I i i i i i / / / I i i i i i 6 6 8 i i i i i i i i i z / / / / I i i i i i / / / / / / K R ' ' $.+.E i ",
"i i 4 4 i z ) @./ / / / I i i i i i / / / Y z z s i i i i i i i i i i i i i i k I / / / I i i i s z / / / ^ I I k i i i ] E p p ",
"i i ; r i / / / / / / / I i i i i i / / / / / / z i i i i i i i i i i i i i i i i / / / I i i i z / / / / I i i i i i i p p i i ",
"i p 6 r i / / / / / / / I i i i i i / / / / / -.G i i i i S { -./ / / / / i i i i / / / I i i I / / / / S i i i i i i i i i i i ",
"i ; t r i z K / / / / / I i i i i i / / / [ %.-.G i i i p S { -.%.%.| / / I m i i z Y / I i i I / / / Z f i i i i i i i i i i i ",
"i r t ; i i S / / / / / Y z i i i i / / / [ %.#.M i i i i n ~ +.-.-.+./ / / S i i i I / I i p P / / / z i i i i i i i i i i i i ",
"i r 6 i i i S / / / / / / / i i i i / / / / / i i i i i i i i i -.-.+./ / / S i i i I / I i i P / / / z i i i i i i i i i i i i ",
"i i i i i i S / / / / / / / i i i i / / / / / i p i i i i p i i i i S / / / / L . . . . = i / / / / i i i H -.-.{ S i i O o O i ",
"i i i i i i f Z / / / / / / i i k I / / / Y z i 6 5 i i @ O # i i i f Z / / / L . . . . X = j U / / i i p g H -.*.} I i i O o O ",
"i i i i i i i f S / / / / / i i z / / / I m i i r 6 p i # O o # i i i z / / L x . . . . . . . L ! S i i i i i ' $.+./ S f & # # ",
"i i l N z i i i i I ^ / / / 2 4 z / / / S i i i 6 5 i i i & O O i i i k I L x . . . . * = = . C D i i i i i i i  .| / / z i i i ",
"i i ' %./ i i i i i P / / / . 2 z / / / S i i i i i i i i i i i i i i i i . . . . . . > i i . . = i i i i p p i I / / / z i i i ",
"p O.+./ / i i i i i p S L . . . . . . 1 i i i i i i i i i i i i i i i i i i > . . i i i i i i i i i i i 6 y p i i S / / z i i i ",
"p o.=.#./ i i i i i i d 9 . . . . . . 1 i i i y 3 i i ; r 5 i i i i i i i i 2 4 2 p p i i i i i k I i i ; r i i i S / / j > i i ",
"p O.%.| / i i i i i p 2 > > > > > > > 2 i 4 ; q 8 4 4 ; t ; 4 i i i i i i 6 6 ; 6 i i i i i S S K / i i 6 y i i 1 j B B , > i i ",
"p O.+./ / i i i i i i i i i i i i i p i i 8 t q 8 i i i ; ; i i i i i i i q q q q i i i i i / / / / i i 6 r i i X X X . . > i i ",
"p I / / / / S i i i O o O i i i i i i i i i 4 i i i i i i i i i i i i i i i i i i i i i G -.-.{ / / i p 6 r i i X X . . . > i i ",
"p k K / / / S p i i 2 & 2 i i i i i p i i i i i i i i 4 i i i i I I c i i i i i i i i i H -.-.{ / / i i p 3 i i 2 1 1 2 & 4 i i ",
"i i z K / / I m i i i p i i S Q Q S S S z i i i 5 ; 6 ; i i i i / / I S S i i i i i i i G -.+.` ! S i i i i i S S l p i 5 8 i i ",
"i i i z / / / ! z i 4 4 s z { *.*.{ { _ K z z i 6 y e t 8 i i i I ^ / _ { G l i i i i i N %./ / I i i i i s z / Y n i 8 r 6 i i ",
"i i i l / / / / / i r ; z / -.-.-.-.-.{ / / / i i i 4 q 8 4 i i i I / { -.-.' i i i i i z / / / I i i i i z / / z 2 i q q 6 i i ",
"p o # i i / / / / i r 6 i i i i i i -.{ / / / / z i i i i i i i i I / / / -.-.+.i i i S / / / z i i i i i z / / z i i q 8 i i i ",
"i O o # i / / / / i r 6 i i i i i p H ! / / / / Y m i i i i i i i k K / / { } ~ i i i S / / / z i i i i E #.%./ z i i 8 p i i i ",
"i & # % i / / / / i 5 8 i i i i i i i m S K / / / I S i 5 6 ; 6 i i z S S / / ! S i i S / / S f i i i E o.=.+.S f i i i i i i i ",
"i i i i i / / / / i i i i i i i i i i i i k I / / / / i ; r r q i i i i p I ! / / z a c L L 1 1 1 1 z X.%.@./ i i i i i i i 2 i ",
"i i i i i / / / / i i i i i i i i i i i i i i / / / / i i i 8 q i i i i p i S / / / 0 . . . . . . . / / / / / i i i i i i @ O p ",
"i i i & . / B . . . 2 i i i i r q q q 8 i i i i I / / / z i i i i i i i i i S / / / 0 . . . . . . . / / / / / i i i i / z @ O p ",
"p p i i : B j . . > 2 4 i i i 5 6 6 q 8 i i i i I / / / z z S S S f i i i i z K / / 0 . . . . . , B / / I S S i i i i / z & & i ",
"i 8 2 i i . X = = i i p & & i i p p r 4 i i i i I / / / Z K _ { { S f i i i p k L L 9 * * . . 9 b / / / S i i i i f z / z i i i ",
"i y 6 i i X > i i i i # o   i i i i i i i i i i I / / / / / { -.-.{ S p i i i p . . . > 1 . . L / / / / S i i i i S / / l p p i ",
"4 y 6 i i i i i i i i i i i i i i i i i i i i i I / / / %.-.-.-.-.H i p i i i i p * . > 1 . . . j / i i i i i i i ' -./ / S i i ",
"p r 6 i i i m I I i i i i i I I F i i i i i i i k K / / [ W G G H f i i p i 5 y i 1 2 4 i 1 . . - z i i i i i i ] $.-./ / S i i ",
"p 5 8 p i ' ) / / i i i i i S ! ( ' ' l i i i > : B / / / A : > i i 8 6 6 p 6 t ; i i i i i > : 1 i i i i i i i O.%.+./ / S i i ",
"i i f v G -...I I i i i i i i F ( %.-.G i i i . . x L / / B . . i 4 y q r p 5 y r 3 3 4 i i i i i i i i i i i z X.| / / Y m i i ",
"i i S { -.-.' i i i i i i i i i z / -.G i i i . . . . / / B . X p y t y p p i i i q q ; i i i i i i i i i i i / / / / / z i i i ",
"i i ' -.-./ S i i i i i i i i i z / -.-.' i i i * . . / j . * p p i i i p p p i i i i i i i i r q q i i > . . . L S i i i i i i ",
"i i ' *.{ / ! F i i i i i i i p z / { *.' i i i 1 % . j - . 2 i p p i i i +.E i i i i i i i i 3 6 q r 3 > . . . 9 d i i i 5 ; i ",
"i i ' %./ / / Y z i i i i i i i z / / @.Q i i i i 1 = . X 2 p i i i f z z %.Q i i i i i i i i i 4 r q 4 % X = = = 2 i i i 6 r i ",
"i i ' %./ / / / / i i i i i i i z / / / S i i i i i i . 2 i p i i i S / / / S i i i i p i i i i p i q 6 i i i i p p i i i 6 r i ",
"i i S / / / / / / / z i i i i I / / / / S i i i r q q i i i i i i I / / / i i i i / / / I i i i i i i i i i i i i i i i i 6 r i ",
"i i S / / / / / / / Y m i i i I / / / / S i i i r y 8 i i i i i #.[ / Y z i i i i / @.%.+.I I I F i i i i i i i ] #.o.I k 4 3 i ",
"i i z K / / / / / / / V > > > P / / / / S i i i 6 4 i i i i l ' +.` / I i i i i i S Q +.%./ / / I i i i i i i ' $.%.+./ z i i i ",
"i i i k I / / / / / / J 9 . j U / / / / S i i i i p i i i i N %./ / / I i i i i i i p E X./ / / Y z i i i s z %.%.| / I k i i i ",
"i i i i i / / / / / / / L . / / / / / / S i i i i i i i i i l / / / / I i i i i i i p p z / / / / / i i i z / / / / / i i i i i ",
"i i i i i / / / / / / / L . / / / / / z 6 q q i i S / / / / / / / / S i i i i i i i i p i i / / / / . . B / / / / S i i i i i i ",
"i i i i i z K / / / b 0 9 . 0 0 b / z s p 8 8 i i Q %.%.[ / / / / / S p i i 5 ; i i i i i i / / / / . . B / / / Z f i i i i i i ",
"i i i i i i z S S S < . . . . : 9 S i i i i i i i H ' ' ( / / / / / I m i i 8 6 6 i i i i i S S A B . x L / / / z i i i i i i i ",
"i i i i i i i i i i = . . . . 1 i i i i i i i i i i i i I / / / / / / P i i i 8 q i i i i i i i & . . L / / / / z i i i i i i i ",
"i i i i i i i p i i i i i i i i 3 q i r 6 i i i i i i i i S / / . L / / / i i 8 q i i i i i i = . . . . B / / i i i i i r q r i ",
"i i 5 r r i 6 ; i i # % i i i i i 3 r 5 4 i i O O % i i i f z z . 9 0 0 j = > 8 q i i i & O O % 2 2 . . B / / i i i i r q ; 3 i ",
"i i 5 ; q ; y r i i O O % i i i i i ; 4 i i i # # & i i i i i i > * . . . : 2 8 q i i i & o # i 4 p > : j V S i i i i ; 6 3 i i ",
"i i i 4 r r ; 6 i i # O O i i i i i i i i i i i i i i i i i i i i : = = = i p 3 r i i i i o i i i i p p : > i i i i i i i i i i ",
"i i i i i i 2 i i i i i i i i i i i i i i i i i i i i i i i i i i i i i i i i i i i i i i i i i i i i p i i i i i i i i i i i i "
};
