/* XPM */
static char *b6491a8d10864e1ceceff7612d4042c0AjG8CroNvACDFlmO[] = {
/* columns rows colors chars-per-pixel */
"64 64 146 2 ",
"   c #025371",
".  c #015F7B",
"X  c #03627E",
"o  c #026384",
"O  c #036B86",
"+  c #016788",
"@  c #026C8B",
"#  c #03728E",
"$  c #026E91",
"%  c #027394",
"&  c #027995",
"*  c #027699",
"=  c #027B9C",
"-  c #027EA1",
";  c #0B7DA1",
":  c #0B8094",
">  c #03819E",
",  c #0A819D",
"<  c #07889E",
"1  c #0383A4",
"2  c #0A85A3",
"3  c #0389A6",
"4  c #098BA5",
"5  c #0386A9",
"6  c #0B86A9",
"7  c #058FAE",
"8  c #068FAF",
"9  c #058DAD",
"0  c #038BAC",
"q  c #098CAC",
"w  c #138AAC",
"e  c #0390AE",
"r  c #0693AF",
"t  c #0491AE",
"y  c #0A92AE",
"u  c #028CB1",
"i  c #028EB1",
"p  c #038DB2",
"a  c #038FB3",
"s  c #038EB1",
"d  c #098EB1",
"f  c #0192B1",
"g  c #0090B2",
"h  c #0190B2",
"j  c #0392B2",
"k  c #0493B1",
"l  c #0693B1",
"z  c #0490B3",
"x  c #0691B2",
"c  c #0394B3",
"v  c #0495B2",
"b  c #0392B4",
"n  c #0591B5",
"m  c #0493B5",
"M  c #0593B7",
"N  c #0793B6",
"B  c #0397B5",
"V  c #0295B7",
"C  c #0194B6",
"Z  c #0495B4",
"A  c #0695B5",
"S  c #0494B7",
"D  c #0595B7",
"F  c #0695B7",
"G  c #0796B6",
"H  c #0492B4",
"J  c #0C93B0",
"K  c #0E95B3",
"L  c #0897B5",
"P  c #0A95B6",
"I  c #0A96B7",
"U  c #0A94B4",
"Y  c #0499B6",
"T  c #0F99B3",
"R  c #0998B6",
"E  c #0999B6",
"W  c #0297B8",
"Q  c #0395BA",
"!  c #0795B9",
"~  c #0497B8",
"^  c #0496BB",
"/  c #0496BA",
"(  c #059ABB",
")  c #079EBB",
"_  c #049BBC",
"`  c #0A9FBF",
"'  c #0D9EBD",
"]  c #0A9CBB",
"[  c #1194B3",
"{  c #1098B2",
"}  c #1C9CBB",
"|  c #05A0BE",
" . c #09A1B9",
".. c #08A3BF",
"X. c #0FA3BF",
"o. c #0AA1BD",
"O. c #16A3BF",
"+. c #4099B9",
"@. c #059FC1",
"#. c #049EC2",
"$. c #049DC2",
"%. c #099EC2",
"&. c #039FC8",
"*. c #05A3C4",
"=. c #0BA4C3",
"-. c #09AAC7",
";. c #05A3C8",
":. c #04A7CA",
">. c #03A5CC",
",. c #04A5CA",
"<. c #0AA4C8",
"1. c #06ABCB",
"2. c #05AAC8",
"3. c #04ABCD",
"4. c #0BABCA",
"5. c #14A2C3",
"6. c #12AAC5",
"7. c #11ACCB",
"8. c #07B0CF",
"9. c #0DB1CD",
"0. c #13B3CD",
"q. c #03ABD0",
"w. c #05ADD1",
"e. c #07AED2",
"r. c #04ACD3",
"t. c #09AED3",
"y. c #04AFDA",
"u. c #04AED9",
"i. c #04B1D4",
"p. c #08B1D0",
"a. c #0CB3D4",
"s. c #0EB8D4",
"d. c #05B5DA",
"f. c #04B4DA",
"g. c #0AB6DA",
"h. c #0BB5D9",
"j. c #05BBDD",
"k. c #09BCDD",
"l. c #04BBE3",
"z. c #09BEE9",
"x. c #4EB3D1",
"c. c #06C7E6",
"v. c #09C6E7",
"b. c #06C4E8",
"n. c #0CC6EC",
"m. c #06CBF5",
/* pixels */
"= * = * % * % @ + @ o o + % & & 3 3 2.3.3 & % 7 Z 0 O X O t 3 > 1 = 3 = % 1 >.- + & $ 1 ' Z y R L 5.5 @ 1 L 7 $ = C I & @ # = 3 ",
"2 5 m C 1 1 * $ * @ o o = 0 & & 5 f 3 :.3 # # & 7 _ : O x k.0 < y 1 R f 5 *.w.C - - $ @ 1 a & 3 1 % f = = - 6 3 u = ! x % > 1 v ",
"# = 0 ( 7 = = 0 K % * 1 o.R 3 = t f 5 0 = $ @ % Q :.t x g.c.f T { t 0 1 $ O @ - U s = O % & < = = 1 2 1 & % 1 - ;.t.- % 5 a = 1 ",
"& > 9 1 & % % q % = v 7 & 1 B > 3 e f = & = > 5 y.8.9 1 0 d.1.5 = > = = @ + $ & - 5 = > 9 * > = - L ! 0 % & 0 5 5 p = o @ 0 > % ",
"> = 5 Q = = , % ! t = @ % 4 > & & = < < & & 1 B Q 1 > # % e 9 O # @ = 1 = & = = 1 1 @ |  .& > 9 - m $.& = & m = = # # % & & @ - ",
"= 1 1 W m 5 = + Z 1 @ @ = & # > > 1 & 3 0 = 1 1 % 1 1 = = 2 = O % 0 > @ - - 1 5 ! Z * 1 9 % > 5 5 d ! 0 =.q @ $ = 4 > 2 2 = O & ",
"1 > = 3 i.Z = * Q I = = 3 B > % # O $ & > f e > = _ 2.7 & r > # # > W 7 5 ! 1 m o.5 1 = B 5 % = * % 5 <.4.1 @ @ 1 =.r t = # # # ",
"= & 1 % 5 5 - q a.L = = f i.2.5 % # & = y ) = 9.t > W _ 0 o. .3 _ _ W 5 1 * 1 6 1 1 a 5 0 0 = 5 - & - 1 ! Z = * *.3.=.4 3 2 % % ",
"3 = & @ % 9 W 1 0 1 5 = 1 7 3 > > & > 3 o.< % O.# & 3 r > 3 3 3 i.d. .> = % 5 5 1 - - C 0 1 = t 3 q 1 = ^ m & d :.>.>.& 6 1 w +.",
"5 % % @ > = x = @ % - 1 5 1 1 > < & # > 3 & 5 O.% & 1 1 3 > 3 e t 8.7 - - = 5 _ f K q 5 = 1 d 5 1 0 0 %.3._ d 7 0 & 6 o = ! 6 } ",
"& = = - | 1 5 7 $ % % = u a 3 1 > # > 0 e = 0 9 5 t = 1 & 2 5 3 3 1 % = = x W y 1 s ^ U U 5 ! Y _ ;.] s >.>.! = 1 * = $ % x & % ",
"5 1 1 = a _ _ ! 7 a e f u 7 = 1 0 e e 3 3 r q > 1 % # & = 1 * 1 > 1 - % 1 7 & * & = _ $.! 5 _ = @ % = = q p d $ % - - = 1 1 1 1 ",
"1 1 3 = 0 *.) * - &.W ) _ Q 1 Q *.3 & & 3 3 = 3 1 % - % = 1 $ 1 > 1 1 9 ! 1 5 x & @ I Q m ] &.d & + $ = = $ 2 & 1 7 7 = s 5 T i.",
"& % > @ 5 *.= * - Q _ 5 - a C _ 5 = > > t e 3 1 = - = - $.s $ = y y * 1 5 s q = + $ =.] 7 = % 1 & o o ; = = @ % s - q 7.= B 4.- ",
"3 = = @ % q * % = - 5 5 a C f f.W 1 1 1 0 7 B 1 1 7 a W a 0 = - 1 5 - 5 B 1 = 1 = 5 I q @ + $ $ = = 2 *._ = 5 4 # > t s.t L 1 o ",
"3 > = = & - 0 5 s a = % 5 x 7 3.Z > > 3 5 =._ = C :.d.9.s.3.q q _ $.1 0 m - & 5 1 * 1 1 @ = I s 1 0 s 3.E 5 U > X @ 3 *.3 1 = @ ",
"= 1 = = 1 % & 1 v u.7 & - = 1 3.B 5 Y ) t ( t 5 5 s d.k.4.=.*._ s = o + * = # 1 *.U 2 1 7 s 1 5 5 5 1 %.a 5 + @ .   & q 0 % 1 = ",
"Y > = > 1 % & 3 Y C = 1 5 1 | _ 1 3 = 0 3 3 1 5 - - a Q f 1 *.*.x 4 > % % * % a ( ! p 0 q 6 } $.p 0 ( 1 & 4 , # O o & & 1 0 1 5 ",
"7 1 = & - = 1 1 1 5 7 5 B Q r.*.1 > 1 Q -.0 0 0 7 C 5 = Z ( 0 f e 2 -.x 1 x 5 5 ] d u 0 t ;.$.0 = C 1 # = 2 2 = $ 6 & = & & O E ",
"& & = = = 1 1 = - 1 1 a q = 1 e B 1 f Q _ 7 - d B ) f 5 a Z e 7 f 5 = s v , _ u.*.$.=.] 0 5 * 1 & = ; % & 1 = 1 2 $ & U - 1 & % ",
"& 1 7 Y 5 _ e # * $ % - % # & & & & 1 - - 7 = % 1 3 3 1 1 _ s 0 C ] w 5 $.5.} L m - q = $ 1 = * = - 1 = 6 0 2 1 0 = W | s 1 5 - ",
"E 0 5 - 5 _ 5 % % 2 a = & & & 3 2 & 0 & % = = & * 1 > - 5 *.o.= = = - - * [ x.P 5 % $ $ * - %.n 0 5 I _ p m 1 - = | 8.B 1 & - 3 ",
"2 > - 1 5 W a & = = 5 ] , % 3 v t = & @ @ & * = 5 a 3 1 C n.-.1 1 $ + * = - 5 _ $.1 1 * = 1 f.r.*.*.<.d @ @ - = O 0 | i.W & = = ",
"1 1 1 0 v _ 5 1 - ; - _ 1 = 3 f 5 = % @ % 2 = 2 5 ( 1 * 1 C *.5 = 3 = % 0 d 0 1 s m ] ^ i.k.q.u._ C - * % % & # % 1 Y ( > = 1 & ",
"= 1 - 1 f *.f U m ] t.^ 1 1 5 0 7 - = % = - 1 5 5 1 > - = - 5 Z 5 q = 5 ^ a - q 1 5 1 1 1.<.1 6 1 1 1 2 3 3 % % = 3 3 3 1 = 7 7 ",
"@ * * - 1 Q 5 1 = = $.C - 1 5 > _ B * * - s _ 5 a 1 - % % * - = 5 m f.m.&.B s ! ! ( 1 @ - 0 - % = 1 5 1 = & % = & = = > 3 7 7 = ",
"* = = - 5 - * = * % % - 1 5 1 = 1 m a 5 s $.-.a 1 - = @ * - 1 = & = >.r.<.P x x ( f 7 5 1 1 = @ % a 5 = 1 3 1 3 3 # % # @ = % O ",
"= = - - Z a * - 5 - $ - 5 1 1 > = > %.&.5 _ $.5 5 1 & % - 1 - - 5 5 0 - > = % * 1 a M 1 1 5 0 =.z.>.3 1 0 = 2 W 3 # # & 1 & % % ",
"- 1 5 a 1 f _ Q p 5 - p 0 = 3 t 1 1 a l.3 = 0 % = 5 C Y s 0 1 ;.r.4.5 - % @ @ - 1 1 q = 3 1 = W f.^ 5 5 :.i.e e 0 & & & 3 y , # ",
"5 7 a 5 * $ = $.u 5 &._ 5 - * 5 5 3 Z l.$.= Q C f Q 3.-.s - 5 _ %.4.2 5 - @ 5 0.= 0 B - = 5 3 e a C 7 5 _ *.f f 3 & & * % W > # ",
"1 q 5 - - = u C 1 - 5 m M 7 1 1 7 =.! 5 %.=.3.*._ a 1 $.L q Z 5 - 7 p 0 _ 5 d <.= > W 1 Q i.8._ = 5 Z a 7 5 1 1 0 t t K =.Z > & ",
"$ * - * = 1 C a 5 0 - q 1 = 5 ! ) 0 - = 1 *.) a $.5 0 ! - 5 Q 1 * 1 7 0 1 ^ p 6 1 1 > 1 ) *.9.e % - = C _ f 1 1 3 2 > - ^ B * % ",
"= % 5 5 = = $ = a &.0 [ = = % 5 f 1 = = - $ % - 7 1 5 5 x U & 1 B ! 5 = % 3 1 3 1 4 < W W 3 f _ f e e 7 a C - 1 & = & % % 3 > = ",
"> 1 5 5 1 = * = 1 &.^ 5 = 5 Q 5 = - s r.l.C 5 ; 1 1 1 5 Y C % @ q 4.e 1 3 5 0 5 x * 2 W f 3 7 5 $.:.| :.#.m - ( L 1 1 > & & 3 & ",
"> 1 * = % = m p 1 - 1 1 a W M - 1 f ! g.b.7 = = 9 = - = 5 C - $ 1 1 = = 1 0 1 _ 3.-.W e u e 7 1 C q.W e a ^ x f 0 B 7 0 e 3 W t ",
"=.y % 1 1 1 >.p * - u 5 5 0 5 m a m 1 5 C - - $ 1 9 1 * 0 C 1 5 R 4 % * & = 0 & U 8.| 3 a _ 1 1 5 Q W Z f C _ r.1 5 1 = t  .e & ",
"y - = * = 5 u.5 % & 2 %.p - s s 7 7 _ 5 a 5 - = 5 = = 1 _ 7 0 ^ ;.1 - = 1 - = % * u *.e 1 W e e a 5 1 1 Z Z W 3.3 > & > 2.W = # ",
"3 5 * - * * 5 = > = * = s &.0 = B ! C a m d - 5 = 1 & > 1 %.Z C ! s 1 ; 7 5 2 = 1 f *.f 7 3 e W *.r.5 = 5 > f :.3 > 3 > e 3 @ & ",
"q u - * $ * - * = * - a a $.n p Q 5 5 - = = & - > > 5 5 5 m = 0 5 f - p 0 6 ;._ 7 :.Y f 7 1 1 t *.#.1 5 1 = Z _ 1 1 3 < > 3 - = ",
"1 5 5 5 5 1 % $ * - ^ ^ $ $ - 5 ] C - - % q P 5 1 = 1 1 5 = q o.] 0 = 5 & 1 >.s 0 Y | *.7 1 e f t f 1 5 a _ y.0 # & # 3 3 > 3 5 ",
"1 1 5 - = 5 ;.$.p - a - $ $ $ - 5 a s Q -.*.v B ( ) s 5 % 1 Y > x 7 % % % 5 _ a a a ( 5 5 5 5 5 1 7 x $.7 f f W 0 1 0 _ _ > & 0 ",
"1 5 ( 1 = m h.u.$.5 5 - * * - 5 = - C W f._ 5 > = 4.9.0 - e 7 1 7 i.q.&.$._ _ 6 5 5 0 e 7 _ 5 - - = = 5 % # & > > > > * > > < 0 ",
"5 s x - 5 5 0 7.&.^ n Q 5 5 n p 5 m Q :.d.Q 1 1 , 1 - * - ( a Q 7 m _ s 1 U 1.M 7 1 > 0 _ *.5 & = = 1 & % & & > & & > % & = & > ",
"1 1 - * 5 p 5 5 - $.u.n - 5 - 5 $.! Q $.:.a 1 y = - = $ 1 k._ 1 * * & = $ 1 &.d C 1 5 5 x _ 5 & = 7 v q & & 3 e 3 & = @ # > 3 _ ",
"5 - - - 5 p d - 5 5 5 * * - - 0 5 = x %.5 - 1 = = = - - Z x = = * = = = = x 2 - - = m m ! Q 0 = = * 5 _ = = 0 e 3 % @ o % 4 5 3 ",
"a p - - - - * - $ 5 1 - - - - 5 - = > 1 = = = * > 2 = 1 a 7 7 5 q <.f = 1 7.] - 6 p r.$._ $.s x m E &.m 1 1 3 e = = # $ & , & = ",
"0 5 5 a 5 * * 5 1 _ a n &.%.$.1.C * * * % @ % 5 s 3 = I - - 2 7 1 :...% = $.0 1 2 0 a - a _ 5 0 5 a 3.s = - 1 1 _ 1 * * = 1 5 & ",
"1 a a _ *.&.>.$.$.*.Q a u p x 4.*.7 1 - = 1 ( :.C = M 4.2 * = 5 2 W :.5 1 5 7 - - * = - 1 5 1 = * * 5 5 1 7 1 - f s = 1 5 W _ > ",
"$.C 5 M <.%.n m ;.1 - 1 5 1 _ 1 = q s x 7 v.v.*.>._ *.5 - - 1 1 1 1 1.5 2 % * % - % $ 1 s - $ = - * % 1 5 1 = = = 3 _ 0 0 *._ 0 ",
"5 1 = * * = * _ 5 $ @ 1 - = 5 5 s C = 5 5 2.a 1 f Z U B C K 5 = = = =.- & & @ 2 ! ; $ * s C a u q 1 * 5 3 = t 3 > > *.*.= 5 0 = ",
"1 1 1 5 - = % 5 5 - = 3 1 % 5 x 3 5 1 - =.0 - 1 = 0 0 m $.7 3 * = 5 &.= * $ = s 1 % * - = = Z $.0 C Q Q 5 = = a 1 1 _ j.= = 0 > ",
"u - 1 0 6 - $ 1 1 = x 1 v 7 *.x 5 a 5 * =.( - - ! U 5 5 1 3 ( _ :.5 5 - - 5 5 5 5 5 6 - * % 5 Z 1 5 Q ! a 5 = 1 0 _ W _ _ 7 *.e ",
"5 5 1 u C 0 * 5 1 = & * - 1 $.5 5 ! 5 - 1 = 7 7 7 5 1 5 B s s 0 C x Y B *.s.8.= d M 5 - 3 7 $.e 1 1 - C 5 0 a 7 ] B 1 1 Y 3._ 7 ",
"1 0 C -.Q U 5 U 2 > > * % p 7 1 1 = * - 1 @ # 5 f 1 1 L _ 0 4.7 = _ *._ W Z v 1 - 5 , 6 1 5 1 5 $.C q K = = = W f = = % & = & 1 ",
"m Q ! 0 - * 1 * + # % = R f x 1 U % - s = + % = s 0 x 4 5 *.] B Y W ! 0 a 5 f 5 1 Z 7 7 5 1 = 1 C >.a 5 = 1 5 1 1 5 1 Q W = 1 = ",
"7 s 7 1 * - 1 - O % % 2 *._ 4.U - $ p 5 = $ = 5 = = 0 t - W f a x ,.( q _ 7 a u 7 *.5 _ Y 5 Z 7 5 n a 5 0 W _ - - 5 -.m.l.f 1 3 ",
"7 > 1 s 5 - $ 0 m 1 1 U 7 _ -.1 $ = &.w.Q 1 - % O o + x _ 0 $.$.= $._ C C 1 0 M r 3 | ) ! Y 3.Z 2 5 5 1 C Q 5 7 a W 1 3._ 1 7 a ",
"1 1 W i.B > s C s * 1 5 5 s * 5 - % %.%.a x % $ $ + o $ B C * = % x f 5 5 = 1 s W 3 f ( 1 -.f.> = 5 M m 1 1 Q Q a x a 5 a 5 1 - ",
"a 3 m <.s - Z 3.1 & = * 1 1 O 5 * % 1 7 1 *.* = % $ $ - 5 _ [ %.1 5 _ 5 u 5 1 % f *.x ! Z a $.1 1 - - C C Z 5 0 B _ $.C _ 0 1 = ",
"3 1 0 5 5 - 1 1 * % * = 0 = = - & ) 7 - = *.= * 5 5 C % 5 _ U 5 5 5 t 1 * - 1 = * f | - 1 1 5 1 1 = - 1 $.:.5 p ( x a 5 p 1 & = ",
"7 5 1 1 t 5 1 & = * % q q ! - - C <.$.% % p 0 5 - 5 u - - 0 5 - m B 5 * - 5 C 5 5 f $.y =.5 - - - 1 | | - 0 7 ^ C a 5 - % 1 2 0 ",
"6.C - 1 5 7 5 1 * & & 0 x $.#.C 3.$.5 % = 5 O % * * 5 u - - 5 - _ ( ( u x 5 _ ;.7 C *.B x C u 5 5 5 ) = $ % * 5 _ C 5 7 a =.y 1 ",
"7 5 7 Z 0 0 0 1 = = 1 2 0 5 u 1 1 %.%.- p a % @ $ * a a a s - * * 5 ! - * 1 1 $.5 W W 5 1 -.l.r.Q 5 a - * * - 5 = 5 _ :.d.B 1 = ",
"5 5 5 7 0 s m s 7 ; m = = - - * % 5 ] 5 5 = = = = = - ^ t.u p 6 = - u - 5 7 5 u C a C 7 C _ 4.h.*.s s x 5 1 Q 5 1 u Q :.i.f 1 = "
};
