/* XPM */
static char *_cb9bfe0cd044bfa9bdfacb282c4b5deWh0KLu25d5PinIRS[] = {
/* columns rows colors chars-per-pixel */
"64 64 157 2 ",
"   c None",
".  c #020304",
"X  c #0A0704",
"o  c #0A0907",
"O  c #050709",
"+  c #07080A",
"@  c #0B0B0A",
"#  c #110F0C",
"$  c #14110D",
"%  c #1B140B",
"&  c #0E0F10",
"*  c #151312",
"=  c #1A1612",
"-  c #1D1915",
";  c #1F1C18",
":  c #241A0B",
">  c #2A1F0F",
",  c #231D16",
"<  c #201E1C",
"1  c #2C200F",
"2  c #32230D",
"3  c #38270F",
"4  c #3B280F",
"5  c #272017",
"6  c #2D2213",
"7  c #26211A",
"8  c #2A241C",
"9  c #2F281E",
"0  c #332511",
"q  c #3E2B11",
"w  c #31271A",
"e  c #31291E",
"r  c #232323",
"t  c #2F2A22",
"y  c #2E2D2B",
"u  c #332C22",
"i  c #393125",
"p  c #3E3529",
"a  c #353536",
"s  c #3E3A34",
"d  c #3B3B3B",
"f  c #422F15",
"g  c #453115",
"h  c #4B3414",
"j  c #4C3719",
"k  c #563C17",
"l  c #543C1B",
"z  c #593F1C",
"x  c #40372A",
"c  c #463B2D",
"v  c #4A3E2E",
"b  c #493E30",
"n  c #6B4B1F",
"m  c #4C4132",
"M  c #514535",
"N  c #5C4B35",
"B  c #564938",
"V  c #5A4D3B",
"C  c #6B4C22",
"Z  c #704F23",
"A  c #735123",
"S  c #7A5727",
"D  c #7D5927",
"F  c #7D5928",
"G  c #61513C",
"H  c #6A583E",
"J  c #434343",
"K  c #4D4C4C",
"L  c #515151",
"P  c #5B5C5D",
"I  c #645541",
"U  c #675843",
"Y  c #6C5B45",
"T  c #6F5F48",
"R  c #776347",
"E  c #73624B",
"W  c #79674E",
"Q  c #7B684F",
"!  c #7F6C53",
"~  c #5F6265",
"^  c #666665",
"/  c #6C6C6D",
"(  c #777776",
")  c #717478",
"_  c gray49",
"`  c #835D2A",
"'  c #87602C",
"]  c #89622D",
"[  c #926930",
"{  c #816D53",
"}  c #857155",
"|  c #8B7455",
" . c #8B765A",
".. c #8F7A5D",
"X. c #927C5E",
"o. c #957F61",
"O. c #968061",
"+. c #9B8464",
"@. c #A18763",
"#. c #A08867",
"$. c #A58C6A",
"%. c #A88F6C",
"&. c #AB916E",
"*. c #AE9470",
"=. c #B19672",
"-. c #B59A74",
";. c #B99D76",
":. c #BB9F78",
">. c #BEA17A",
",. c #C4A67E",
"<. c #C6A87F",
"1. c #828284",
"2. c #8D8F92",
"3. c gray61",
"4. c #A2A3A5",
"5. c #AFAFAF",
"6. c #B3B3B3",
"7. c #B9B9B9",
"8. c #C7A980",
"9. c #C9AB82",
"0. c #CFB085",
"q. c #D1B287",
"w. c #D5B589",
"e. c #D8B78B",
"r. c #DAB98C",
"t. c #DFBE90",
"y. c #E1BF90",
"u. c #E5C394",
"i. c #E8C696",
"p. c #C3C3C3",
"a. c #C4C6C8",
"s. c #C6C8CA",
"d. c #C9CACA",
"f. c #CED0D3",
"g. c #D2D2D2",
"h. c #DFDFDF",
"j. c #E7E7E7",
"k. c #E2E3E3",
"l. c #E9E9E9",
"z. c #EAEAE9",
"x. c #EEEEEE",
"c. c #F0EFEF",
"v. c #F3F3F3",
"b. c #F4F4F4",
"n. c #F7F7F7",
"m. c #F8F7F7",
"M. c #F9F9F9",
"N. c #F8F8F8",
"B. c gray98",
"V. c #FBFBFB",
"C. c #FBFAFA",
"Z. c gray99",
"A. c #FDFDFD",
"S. c #FCFCFD",
"D. c #FEFEFE",
"F. c white",
"G. c #FFFEFE",
/* pixels */
"                                                                                                                                ",
"                                                                                                                                ",
"                                                                                                                                ",
"                                                                                                                                ",
"                                                                                                                                ",
"                                                                                                                                ",
"                                                                                                                                ",
"                  o . o             o .                                                                                         ",
"                + +                     + o                                                                                     ",
"              o         7 V E U i           @                                                                                   ",
"                  . < * 6 ;.i.r.G o r o                                                                                         ",
"                d 6.k.c.6.y { x ) j.z.d.^ +                                                                                     ",
"              P Z.F.F.Z.F.k.@ 2.F.M.F.F.F.3.o                                                                                   ",
"            J M.F.M.F.C.F.z.L M.F.M.F.Z.M.F.1.                                                                                  ",
"          . 7.F.M.F.Z.Z.F.7.^ F.M.F.F.F.F.F.v.a                                                                                 ",
"          J M.F.F.F.F.g.v.6./ F.h.g.F.F.F.M.F.1.                                                                                ",
"          / F.F.Z.F.h.. d p.P F.d . g.F.Z.F.F.6..                                                                               ",
"          _ F.M.F.F.j.* J v.K M.L o h.F.F.M.F.p.@                                 $ u x b b i 8 o 6 %                           ",
"          / F.M.F.F.F.x.M.c.@ 4.F.l.F.F.F.Z.F.5..                           . i } &.,.9.q.9.9.9.B k F l > .                     ",
"          d b.F.M.F.M.M.F.P N s k.F.N.Z.M.b.F.(                           $ ! 8.*.9.q.,.8.9.,.e.X.2 ] ` ' z %                   ",
"          . 1.F.Z.F.F.F./ v u.{ a k.F.F.F.F.s.&                         . { y.9.%.V $.e.,.8.<.9.-.6 D D S ] F 0 .               ",
"          B m ~ a.f.4.d N q.,.e. .t 1.s.f.2.p ,                         p q.8.,.q.-.u X.e.,.9.8.9.i n ` S S F ] f .             ",
"        . ..r.R v b N +.e.8.8.8.w.:.U v b N <.I                         I e.,.9.,.q.;., $.q.,.,.e.m z ' S F F F ] f .           ",
"        % =.9.e.e.q.r.q.8.8.9.8.8.9.e.e.q.w.r.I                         Y e.,.9.9.,.q.$.e ,.9.,.e.Y g ] F F F F F ] 0           ",
"        u <.9.,.,.<.,.8.8.8.8.8.8.8.8.<.,.,.e.I                         I e.,.8.8.9.,.e.! U e.,.e.! q ] F F F F F F S %         ",
"        b 0.8.8.8.8.8.8.9.8.9.9.9.8.8.8.9.,.e.V                         M e.<.<.8.8.8.8.q.E =.9.q. .2 ` S F F F F S ] C o       ",
"        M q.<.8.8.9.9.8.8.9.8.9.9.8.8.8.8.<.q.b                         u 9.9.8.9.9.9.8.9.:.&.r.y.o.3 [ ` ` ` ` ] ` S j #       ",
"        m q.<.8.9.8.9.9.9.8.9.8.8.8.8.9.<.9.,.u                         = &.9.8.8.8.8.8.9.9.=.Y V t : l l z z l g 0 $           ",
"        u 9.8.8.8.8.9.9.8.9.8.8.8.9.9.8.8.q.%.#                           } e.,.8.9.8.8.<.r.I .                                 ",
"        o $.q.8.9.8.9.9.8.8.9.,.q.-.-.9.,.e.W                             M e.,.9.9.9.8.8.9.%.*                                 ",
"          c r.9.,.8.8.9.8.8.8.r.&.E 9.8.8.9.c                             , ;.9.8.,.,.,.,.,.q.b                                 ",
"            M <.r.q.9.9.9.q.e. .v >.9.8.q.+.+                             .  .e.8.q.e.e.e.w.t.o..                               ",
"              8 Y +.&.,.:.X.v v ,.9.<.<.w.m                                 B e.>.+.E V V Y X.;.t                               ",
"                  . - = i v  .w.9.<.8.q.%.@                                 8 =...E ! {  .X.X.:.I                               ",
"                      8 :.e.w.<.9.9.,.e.Y                                   . } w.q.e.w.e.w.0.e.O..                             ",
"                      I e.,.,.<.9.<.9.9.x                                     V w.>.8.8.,.<.,.9.>.8                             ",
"                    o +.w.,.<.9.8.8.9.-.,                                     u 8.8.8.8.8.9.8.,.w.m                             ",
"                    8 ,.9.<.9.9.8.,.q.+.o                                     $ $.0.8.8.9.8.8.8.e.T                             ",
"                    M e.,.9.<.,.8.w.u.X..                                       } w.8.9.8.9.8.8.e...                            ",
"                    T e.,.<.9.e.,. .V e X                                       Y e.8.8.9.8.8.8.0.+.o                           ",
"                     .e.,.q.,.I 6 1 h A l +                                     I e.,.8.8.9.8.8.0.&.-                           ",
"                  @ O.e.q.} , 4 A ] ] ' S %                                     Y e.,.8.9.8.9.8.9.=.;                           ",
"                  + $.e.m : C ] F F F S ] h                                   .  .e.,.<.9.8.8.8.q.=.;                           ",
"                  & +.x 3 ] ` D F F F F F ` 6                                 9 >.,.e.9.,.9.8.<.q.$.$                           ",
"                  * = h ] S F F F F F F F F ` 1                             , &.<.} Y -.e.,.9.<.e....                           ",
"                  . q ] F F ` F ` F F F F S ` Z .                     . 8 Y ,.9.<.0...9 X.w.,.<.e.T                             ",
"                  o C ` F F F F F F F ` S D ' z x Q c t 7 - - 8 u m Y o.,.e.9.8.<.,.e.-.7 #.q.<.0.p                             ",
"                    1 ] F F F F F F F F F D ' h I i.9.<.-.=.-.:.8.q.e.w.9.,.8.9.9.9.,.w.&.x 9.q.+.o                             ",
"                    . z ` S F F F F F F F F ] f W w.,.8.9.0.9.w.&.$.9.,.8.8.8.8.9.8.8.,.e.} X.t.c                               ",
"                      % S ` F F F ` F F F F ` 0 +.0.,.<.8.8.9.9.=.U q.<.8.9.9.9.8.9.8.9.9.:.,.{ .                               ",
"                        0 ] F F F F ` F F ` A w ,.9.9.9.8.9.8.9.>.v <.9.8.9.9.8.9.8.9.9.,.r.O.@                                 ",
"                        . g ] F F F S F F ` h V e.,.9.8.9.9.8.9.,.p :.9.8.8.8.9.8.8.,.9.r.} #                                   ",
"                          . f ] ` S D D S ` > %.9.8.8.9.8.9.8.9.,.v ,.9.<.9.<.8.,.9.r.>.V .                                     ",
"                            . 6 A ] ` S ] g B r.,.8.8.,.8.,.,.8.:.G ,.,.,.9.9.e.e.-.T ,                                         ",
"                                # f C ] A $ $.9.0.e.e.e.w.q.e.e.9.&.r.e.w.<.*.} m -                                             ",
"                                    # 0 % + ; u b I T {  .X.o.X.X.} Q U M u *                                                   ",
"                                                          . o + .                                                               ",
"                                                                                                                                ",
"                                                                                                                                ",
"                                                                                                                                ",
"                                                                                                                                ",
"                                                                                                                                ",
"                                                                                                                                ",
"                                                                                                                                "
};
